<mxfile host="app.diagrams.net" agent="Mozilla/5.0 (Windows NT 10.0; Win64; x64) AppleWebKit/537.36 (KHTML, like Gecko) Chrome/136.0.0.0 Safari/537.36" version="27.0.3">
  <diagram name="Page-1" id="UXfypaFDfHBTsZ5DScIH">
    <mxGraphModel dx="5117" dy="2647" grid="1" gridSize="10" guides="1" tooltips="1" connect="1" arrows="1" fold="1" page="1" pageScale="1" pageWidth="850" pageHeight="1100" math="0" shadow="0">
      <root>
        <mxCell id="0" />
        <mxCell id="1" parent="0" />
        <mxCell id="euu6ToIqH1oOXl2yIwQL-150" value="" style="rounded=0;whiteSpace=wrap;html=1;" vertex="1" parent="1">
          <mxGeometry x="60" y="-530" width="1620" height="1570" as="geometry" />
        </mxCell>
        <mxCell id="euu6ToIqH1oOXl2yIwQL-135" value="" style="whiteSpace=wrap;html=1;aspect=fixed;" vertex="1" parent="1">
          <mxGeometry x="-1500" y="-380" width="810" height="810" as="geometry" />
        </mxCell>
        <mxCell id="euu6ToIqH1oOXl2yIwQL-133" value="" style="rounded=0;whiteSpace=wrap;html=1;" vertex="1" parent="1">
          <mxGeometry x="1470" y="1233.7800000000002" width="621" height="250" as="geometry" />
        </mxCell>
        <mxCell id="euu6ToIqH1oOXl2yIwQL-131" value="" style="rounded=0;whiteSpace=wrap;html=1;" vertex="1" parent="1">
          <mxGeometry x="-1664.5" y="-958.77" width="1019.5" height="478.77" as="geometry" />
        </mxCell>
        <mxCell id="euu6ToIqH1oOXl2yIwQL-125" value="" style="rounded=0;whiteSpace=wrap;html=1;" vertex="1" parent="1">
          <mxGeometry x="1715" y="192" width="490" height="810" as="geometry" />
        </mxCell>
        <mxCell id="euu6ToIqH1oOXl2yIwQL-115" value="" style="rounded=0;whiteSpace=wrap;html=1;" vertex="1" parent="1">
          <mxGeometry x="-1100" y="450" width="1060" height="860" as="geometry" />
        </mxCell>
        <mxCell id="euu6ToIqH1oOXl2yIwQL-112" value="" style="rounded=0;whiteSpace=wrap;html=1;" vertex="1" parent="1">
          <mxGeometry x="1720" y="-610" width="610" height="710" as="geometry" />
        </mxCell>
        <mxCell id="euu6ToIqH1oOXl2yIwQL-109" value="" style="rounded=0;whiteSpace=wrap;html=1;" vertex="1" parent="1">
          <mxGeometry x="470" y="1230" width="640" height="350" as="geometry" />
        </mxCell>
        <mxCell id="euu6ToIqH1oOXl2yIwQL-103" value="" style="rounded=0;whiteSpace=wrap;html=1;" vertex="1" parent="1">
          <mxGeometry x="-1100" y="1380" width="960" height="1120" as="geometry" />
        </mxCell>
        <mxCell id="euu6ToIqH1oOXl2yIwQL-101" value="" style="rounded=0;whiteSpace=wrap;html=1;" vertex="1" parent="1">
          <mxGeometry x="-645" y="-290" width="630" height="630" as="geometry" />
        </mxCell>
        <mxCell id="MKbB5JOdqE88hXex_plG-4" value="&lt;&lt;abstract&gt;&gt;&#xa;User" style="swimlane;fontStyle=1;align=center;verticalAlign=top;childLayout=stackLayout;horizontal=1;startSize=46.857142857142854;horizontalStack=0;resizeParent=1;resizeParentMax=0;resizeLast=0;collapsible=0;marginBottom=0;" parent="1" vertex="1">
          <mxGeometry x="760" y="-480" width="411" height="279.9971428571429" as="geometry" />
        </mxCell>
        <mxCell id="MKbB5JOdqE88hXex_plG-5" value="# ID: String    " style="text;strokeColor=none;fillColor=none;align=left;verticalAlign=top;spacingLeft=4;spacingRight=4;overflow=hidden;rotatable=0;points=[[0,0.5],[1,0.5]];portConstraint=eastwest;" parent="MKbB5JOdqE88hXex_plG-4" vertex="1">
          <mxGeometry y="46.857142857142854" width="411" height="23.14" as="geometry" />
        </mxCell>
        <mxCell id="MKbB5JOdqE88hXex_plG-6" value="# NAME: String" style="text;strokeColor=none;fillColor=none;align=left;verticalAlign=top;spacingLeft=4;spacingRight=4;overflow=hidden;rotatable=0;points=[[0,0.5],[1,0.5]];portConstraint=eastwest;" parent="MKbB5JOdqE88hXex_plG-4" vertex="1">
          <mxGeometry y="69.99714285714285" width="411" height="22.14" as="geometry" />
        </mxCell>
        <mxCell id="MKbB5JOdqE88hXex_plG-7" value="# phoneNumber: String" style="text;strokeColor=none;fillColor=none;align=left;verticalAlign=top;spacingLeft=4;spacingRight=4;overflow=hidden;rotatable=0;points=[[0,0.5],[1,0.5]];portConstraint=eastwest;" parent="MKbB5JOdqE88hXex_plG-4" vertex="1">
          <mxGeometry y="92.13714285714285" width="411" height="17.86" as="geometry" />
        </mxCell>
        <mxCell id="MKbB5JOdqE88hXex_plG-8" value="# email: String" style="text;strokeColor=none;fillColor=none;align=left;verticalAlign=top;spacingLeft=4;spacingRight=4;overflow=hidden;rotatable=0;points=[[0,0.5],[1,0.5]];portConstraint=eastwest;" parent="MKbB5JOdqE88hXex_plG-4" vertex="1">
          <mxGeometry y="109.99714285714285" width="411" height="20" as="geometry" />
        </mxCell>
        <mxCell id="MKbB5JOdqE88hXex_plG-9" value="# username: String" style="text;strokeColor=none;fillColor=none;align=left;verticalAlign=top;spacingLeft=4;spacingRight=4;overflow=hidden;rotatable=0;points=[[0,0.5],[1,0.5]];portConstraint=eastwest;" parent="MKbB5JOdqE88hXex_plG-4" vertex="1">
          <mxGeometry y="129.99714285714285" width="411" height="23.14" as="geometry" />
        </mxCell>
        <mxCell id="MKbB5JOdqE88hXex_plG-10" value="# password: String&#xa;&#xa;- " style="text;strokeColor=none;fillColor=none;align=left;verticalAlign=top;spacingLeft=4;spacingRight=4;overflow=hidden;rotatable=0;points=[[0,0.5],[1,0.5]];portConstraint=eastwest;" parent="MKbB5JOdqE88hXex_plG-4" vertex="1">
          <mxGeometry y="153.13714285714286" width="411" height="28.14" as="geometry" />
        </mxCell>
        <mxCell id="nwuAQOCsM4HNO6WuRVP9-2" value="&lt;div style=&quot;&quot;&gt;&lt;span style=&quot;background-color: transparent; color: light-dark(rgb(0, 0, 0), rgb(255, 255, 255));&quot;&gt;&amp;nbsp; -&amp;nbsp;&lt;/span&gt;&lt;u style=&quot;background-color: transparent; color: light-dark(rgb(0, 0, 0), rgb(255, 255, 255));&quot;&gt;&lt;/u&gt;&lt;/div&gt;" style="text;html=1;align=left;verticalAlign=middle;whiteSpace=wrap;rounded=0;" parent="MKbB5JOdqE88hXex_plG-4" vertex="1">
          <mxGeometry y="181.27714285714285" width="411" height="8.72" as="geometry" />
        </mxCell>
        <mxCell id="MKbB5JOdqE88hXex_plG-11" style="line;strokeWidth=1;fillColor=none;align=left;verticalAlign=middle;spacingTop=-1;spacingLeft=3;spacingRight=3;rotatable=0;labelPosition=right;points=[];portConstraint=eastwest;strokeColor=inherit;" parent="MKbB5JOdqE88hXex_plG-4" vertex="1">
          <mxGeometry y="189.99714285714285" width="411" height="8" as="geometry" />
        </mxCell>
        <mxCell id="MKbB5JOdqE88hXex_plG-14" value="+ checkUsername(String inputUsername): boolean&#xa;+ checkPassword(String inputPassword): boolean&#xa;+ toString(): String&#xa;+ equals(Object obj): boolean" style="text;strokeColor=none;fillColor=none;align=left;verticalAlign=top;spacingLeft=4;spacingRight=4;overflow=hidden;rotatable=0;points=[[0,0.5],[1,0.5]];portConstraint=eastwest;" parent="MKbB5JOdqE88hXex_plG-4" vertex="1">
          <mxGeometry y="197.99714285714285" width="411" height="82" as="geometry" />
        </mxCell>
        <mxCell id="MKbB5JOdqE88hXex_plG-15" value="Doctor" style="swimlane;fontStyle=1;align=center;verticalAlign=top;childLayout=stackLayout;horizontal=1;startSize=29.043478260869566;horizontalStack=0;resizeParent=1;resizeParentMax=0;resizeLast=0;collapsible=0;marginBottom=0;" parent="1" vertex="1">
          <mxGeometry x="100" y="606.48" width="520" height="328.04347826086956" as="geometry" />
        </mxCell>
        <mxCell id="euu6ToIqH1oOXl2yIwQL-148" value="&amp;nbsp;- patients: ArrayList&amp;lt;Patient&amp;gt;" style="text;html=1;align=left;verticalAlign=middle;whiteSpace=wrap;rounded=0;" vertex="1" parent="MKbB5JOdqE88hXex_plG-15">
          <mxGeometry y="29.043478260869566" width="520" height="30" as="geometry" />
        </mxCell>
        <mxCell id="MKbB5JOdqE88hXex_plG-16" style="line;strokeWidth=1;fillColor=none;align=left;verticalAlign=middle;spacingTop=-1;spacingLeft=3;spacingRight=3;rotatable=0;labelPosition=right;points=[];portConstraint=eastwest;strokeColor=inherit;" parent="MKbB5JOdqE88hXex_plG-15" vertex="1">
          <mxGeometry y="59.04347826086956" width="520" height="8" as="geometry" />
        </mxCell>
        <mxCell id="MKbB5JOdqE88hXex_plG-18" value="+ addPatient(Patient patient): void" style="text;strokeColor=none;fillColor=none;align=left;verticalAlign=top;spacingLeft=4;spacingRight=4;overflow=hidden;rotatable=0;points=[[0,0.5],[1,0.5]];portConstraint=eastwest;" parent="MKbB5JOdqE88hXex_plG-15" vertex="1">
          <mxGeometry y="67.04347826086956" width="520" height="29" as="geometry" />
        </mxCell>
        <mxCell id="MKbB5JOdqE88hXex_plG-19" value="+ getAppointments(): ArrayList&lt;Appointment&gt;" style="text;strokeColor=none;fillColor=none;align=left;verticalAlign=top;spacingLeft=4;spacingRight=4;overflow=hidden;rotatable=0;points=[[0,0.5],[1,0.5]];portConstraint=eastwest;" parent="MKbB5JOdqE88hXex_plG-15" vertex="1">
          <mxGeometry y="96.04347826086956" width="520" height="29" as="geometry" />
        </mxCell>
        <mxCell id="MKbB5JOdqE88hXex_plG-20" value="+ getPendingAndApprovedAppointments(): ArrayList&lt;Appointment&gt;" style="text;strokeColor=none;fillColor=none;align=left;verticalAlign=top;spacingLeft=4;spacingRight=4;overflow=hidden;rotatable=0;points=[[0,0.5],[1,0.5]];portConstraint=eastwest;" parent="MKbB5JOdqE88hXex_plG-15" vertex="1">
          <mxGeometry y="125.04347826086956" width="520" height="29" as="geometry" />
        </mxCell>
        <mxCell id="MKbB5JOdqE88hXex_plG-21" value="+ approveAppointment(Appointment appointment): void" style="text;strokeColor=none;fillColor=none;align=left;verticalAlign=top;spacingLeft=4;spacingRight=4;overflow=hidden;rotatable=0;points=[[0,0.5],[1,0.5]];portConstraint=eastwest;" parent="MKbB5JOdqE88hXex_plG-15" vertex="1">
          <mxGeometry y="154.04347826086956" width="520" height="29" as="geometry" />
        </mxCell>
        <mxCell id="MKbB5JOdqE88hXex_plG-22" value="+ cancelAppointment(Appointment appointment): void" style="text;strokeColor=none;fillColor=none;align=left;verticalAlign=top;spacingLeft=4;spacingRight=4;overflow=hidden;rotatable=0;points=[[0,0.5],[1,0.5]];portConstraint=eastwest;" parent="MKbB5JOdqE88hXex_plG-15" vertex="1">
          <mxGeometry y="183.04347826086956" width="520" height="29" as="geometry" />
        </mxCell>
        <mxCell id="MKbB5JOdqE88hXex_plG-23" value="+ getVideoCalls(): ArrayList&lt;VideoCall&gt;" style="text;strokeColor=none;fillColor=none;align=left;verticalAlign=top;spacingLeft=4;spacingRight=4;overflow=hidden;rotatable=0;points=[[0,0.5],[1,0.5]];portConstraint=eastwest;" parent="MKbB5JOdqE88hXex_plG-15" vertex="1">
          <mxGeometry y="212.04347826086956" width="520" height="29" as="geometry" />
        </mxCell>
        <mxCell id="MKbB5JOdqE88hXex_plG-24" value="+ approveVideoCall(VideoCall videoCall): void" style="text;strokeColor=none;fillColor=none;align=left;verticalAlign=top;spacingLeft=4;spacingRight=4;overflow=hidden;rotatable=0;points=[[0,0.5],[1,0.5]];portConstraint=eastwest;" parent="MKbB5JOdqE88hXex_plG-15" vertex="1">
          <mxGeometry y="241.04347826086956" width="520" height="29" as="geometry" />
        </mxCell>
        <mxCell id="MKbB5JOdqE88hXex_plG-25" value="+ cancelVideoCall(VideoCall videoCall): void" style="text;strokeColor=none;fillColor=none;align=left;verticalAlign=top;spacingLeft=4;spacingRight=4;overflow=hidden;rotatable=0;points=[[0,0.5],[1,0.5]];portConstraint=eastwest;" parent="MKbB5JOdqE88hXex_plG-15" vertex="1">
          <mxGeometry y="270.04347826086956" width="520" height="29" as="geometry" />
        </mxCell>
        <mxCell id="MKbB5JOdqE88hXex_plG-26" value="+ patientCriticalVitalDetection(): String" style="text;strokeColor=none;fillColor=none;align=left;verticalAlign=top;spacingLeft=4;spacingRight=4;overflow=hidden;rotatable=0;points=[[0,0.5],[1,0.5]];portConstraint=eastwest;" parent="MKbB5JOdqE88hXex_plG-15" vertex="1">
          <mxGeometry y="299.04347826086956" width="520" height="29" as="geometry" />
        </mxCell>
        <mxCell id="MKbB5JOdqE88hXex_plG-27" value="Patient" style="swimlane;fontStyle=1;align=center;verticalAlign=top;childLayout=stackLayout;horizontal=1;startSize=30.823529411764707;horizontalStack=0;resizeParent=1;resizeParentMax=0;resizeLast=0;collapsible=0;marginBottom=0;" parent="1" vertex="1">
          <mxGeometry x="960" y="410" width="441" height="592.0035294117647" as="geometry" />
        </mxCell>
        <mxCell id="euu6ToIqH1oOXl2yIwQL-152" value="&amp;nbsp;- vitalsDatabase: VitalsDatabase&lt;div&gt;&amp;nbsp;- feedbacks: ArrayList&amp;lt;Feedback&amp;gt;&lt;/div&gt;&lt;div&gt;&lt;span style=&quot;background-color: transparent; color: light-dark(rgb(0, 0, 0), rgb(255, 255, 255));&quot;&gt;&amp;nbsp;- emergencyContacts: ArrayList&amp;lt;String&amp;gt;&lt;/span&gt;&lt;/div&gt;&lt;div&gt;&lt;span style=&quot;background-color: transparent; color: light-dark(rgb(0, 0, 0), rgb(255, 255, 255));&quot;&gt;&amp;nbsp;- physician: Doctor&amp;nbsp;&lt;/span&gt;&lt;/div&gt;" style="text;html=1;align=left;verticalAlign=middle;whiteSpace=wrap;rounded=0;" vertex="1" parent="MKbB5JOdqE88hXex_plG-27">
          <mxGeometry y="30.823529411764707" width="441" height="79.18" as="geometry" />
        </mxCell>
        <mxCell id="MKbB5JOdqE88hXex_plG-28" style="line;strokeWidth=1;fillColor=none;align=left;verticalAlign=middle;spacingTop=-1;spacingLeft=3;spacingRight=3;rotatable=0;labelPosition=right;points=[];portConstraint=eastwest;strokeColor=inherit;" parent="MKbB5JOdqE88hXex_plG-27" vertex="1">
          <mxGeometry y="110.00352941176472" width="441" height="8" as="geometry" />
        </mxCell>
        <mxCell id="MKbB5JOdqE88hXex_plG-30" value="+ requestAppointment(Appointment appointment): void" style="text;strokeColor=none;fillColor=none;align=left;verticalAlign=top;spacingLeft=4;spacingRight=4;overflow=hidden;rotatable=0;points=[[0,0.5],[1,0.5]];portConstraint=eastwest;" parent="MKbB5JOdqE88hXex_plG-27" vertex="1">
          <mxGeometry y="118.00352941176472" width="441" height="31" as="geometry" />
        </mxCell>
        <mxCell id="MKbB5JOdqE88hXex_plG-31" value="+ cancelAppointment(Appointment appointment): void" style="text;strokeColor=none;fillColor=none;align=left;verticalAlign=top;spacingLeft=4;spacingRight=4;overflow=hidden;rotatable=0;points=[[0,0.5],[1,0.5]];portConstraint=eastwest;" parent="MKbB5JOdqE88hXex_plG-27" vertex="1">
          <mxGeometry y="149.0035294117647" width="441" height="31" as="geometry" />
        </mxCell>
        <mxCell id="euu6ToIqH1oOXl2yIwQL-188" value="+ viewAppointments(): ArrayList&lt;Appointment&gt;" style="text;strokeColor=none;fillColor=none;align=left;verticalAlign=top;spacingLeft=4;spacingRight=4;overflow=hidden;rotatable=0;points=[[0,0.5],[1,0.5]];portConstraint=eastwest;" vertex="1" parent="MKbB5JOdqE88hXex_plG-27">
          <mxGeometry y="180.0035294117647" width="441" height="31" as="geometry" />
        </mxCell>
        <mxCell id="MKbB5JOdqE88hXex_plG-32" value="+ requestVideoCall(VideoCall videoCall): void" style="text;strokeColor=none;fillColor=none;align=left;verticalAlign=top;spacingLeft=4;spacingRight=4;overflow=hidden;rotatable=0;points=[[0,0.5],[1,0.5]];portConstraint=eastwest;" parent="MKbB5JOdqE88hXex_plG-27" vertex="1">
          <mxGeometry y="211.0035294117647" width="441" height="31" as="geometry" />
        </mxCell>
        <mxCell id="euu6ToIqH1oOXl2yIwQL-189" value="+ viewVideoCalls(): ArrayList&lt;VideoCall&gt;" style="text;strokeColor=none;fillColor=none;align=left;verticalAlign=top;spacingLeft=4;spacingRight=4;overflow=hidden;rotatable=0;points=[[0,0.5],[1,0.5]];portConstraint=eastwest;" vertex="1" parent="MKbB5JOdqE88hXex_plG-27">
          <mxGeometry y="242.0035294117647" width="441" height="31" as="geometry" />
        </mxCell>
        <mxCell id="MKbB5JOdqE88hXex_plG-33" value="+ cancelVideoCall(VideoCall videoCall): void" style="text;strokeColor=none;fillColor=none;align=left;verticalAlign=top;spacingLeft=4;spacingRight=4;overflow=hidden;rotatable=0;points=[[0,0.5],[1,0.5]];portConstraint=eastwest;" parent="MKbB5JOdqE88hXex_plG-27" vertex="1">
          <mxGeometry y="273.0035294117647" width="441" height="31" as="geometry" />
        </mxCell>
        <mxCell id="MKbB5JOdqE88hXex_plG-34" value="+ addEmergencyContact(String contact): void" style="text;strokeColor=none;fillColor=none;align=left;verticalAlign=top;spacingLeft=4;spacingRight=4;overflow=hidden;rotatable=0;points=[[0,0.5],[1,0.5]];portConstraint=eastwest;" parent="MKbB5JOdqE88hXex_plG-27" vertex="1">
          <mxGeometry y="304.0035294117647" width="441" height="31" as="geometry" />
        </mxCell>
        <mxCell id="euu6ToIqH1oOXl2yIwQL-167" value="+ removeEmergencyContact(String contact): void" style="text;strokeColor=none;fillColor=none;align=left;verticalAlign=top;spacingLeft=4;spacingRight=4;overflow=hidden;rotatable=0;points=[[0,0.5],[1,0.5]];portConstraint=eastwest;" vertex="1" parent="MKbB5JOdqE88hXex_plG-27">
          <mxGeometry y="335.0035294117647" width="441" height="31" as="geometry" />
        </mxCell>
        <mxCell id="MKbB5JOdqE88hXex_plG-35" value="+ panicButton(String message): void" style="text;strokeColor=none;fillColor=none;align=left;verticalAlign=top;spacingLeft=4;spacingRight=4;overflow=hidden;rotatable=0;points=[[0,0.5],[1,0.5]];portConstraint=eastwest;" parent="MKbB5JOdqE88hXex_plG-27" vertex="1">
          <mxGeometry y="366.0035294117647" width="441" height="31" as="geometry" />
        </mxCell>
        <mxCell id="euu6ToIqH1oOXl2yIwQL-168" value="+ uploadVitalSign(VitalSign vital): String" style="text;strokeColor=none;fillColor=none;align=left;verticalAlign=top;spacingLeft=4;spacingRight=4;overflow=hidden;rotatable=0;points=[[0,0.5],[1,0.5]];portConstraint=eastwest;" vertex="1" parent="MKbB5JOdqE88hXex_plG-27">
          <mxGeometry y="397.0035294117647" width="441" height="31" as="geometry" />
        </mxCell>
        <mxCell id="euu6ToIqH1oOXl2yIwQL-187" value="+ addFeedback(Feedback feedback): void" style="text;strokeColor=none;fillColor=none;align=left;verticalAlign=top;spacingLeft=4;spacingRight=4;overflow=hidden;rotatable=0;points=[[0,0.5],[1,0.5]];portConstraint=eastwest;" vertex="1" parent="MKbB5JOdqE88hXex_plG-27">
          <mxGeometry y="428.0035294117647" width="441" height="31" as="geometry" />
        </mxCell>
        <mxCell id="euu6ToIqH1oOXl2yIwQL-170" value="+ removeVitalSign(VitalSign vital): void" style="text;strokeColor=none;fillColor=none;align=left;verticalAlign=top;spacingLeft=4;spacingRight=4;overflow=hidden;rotatable=0;points=[[0,0.5],[1,0.5]];portConstraint=eastwest;" vertex="1" parent="MKbB5JOdqE88hXex_plG-27">
          <mxGeometry y="459.0035294117647" width="441" height="34" as="geometry" />
        </mxCell>
        <mxCell id="euu6ToIqH1oOXl2yIwQL-171" value="+ viewPreviousVitals(): ArrayList&lt;VitalSign&gt;" style="text;strokeColor=none;fillColor=none;align=left;verticalAlign=top;spacingLeft=4;spacingRight=4;overflow=hidden;rotatable=0;points=[[0,0.5],[1,0.5]];portConstraint=eastwest;" vertex="1" parent="MKbB5JOdqE88hXex_plG-27">
          <mxGeometry y="493.0035294117647" width="441" height="34" as="geometry" />
        </mxCell>
        <mxCell id="euu6ToIqH1oOXl2yIwQL-186" value="+ viewPreviousFeedbacks(): ArrayList&lt;Feedback&gt;" style="text;strokeColor=none;fillColor=none;align=left;verticalAlign=top;spacingLeft=4;spacingRight=4;overflow=hidden;rotatable=0;points=[[0,0.5],[1,0.5]];portConstraint=eastwest;" vertex="1" parent="MKbB5JOdqE88hXex_plG-27">
          <mxGeometry y="527.0035294117647" width="441" height="34" as="geometry" />
        </mxCell>
        <mxCell id="euu6ToIqH1oOXl2yIwQL-169" value="+ uploadVitalSignFromCSV(String filepath): ArrayList&lt;String&gt;" style="text;strokeColor=none;fillColor=none;align=left;verticalAlign=top;spacingLeft=4;spacingRight=4;overflow=hidden;rotatable=0;points=[[0,0.5],[1,0.5]];portConstraint=eastwest;" vertex="1" parent="MKbB5JOdqE88hXex_plG-27">
          <mxGeometry y="561.0035294117647" width="441" height="31" as="geometry" />
        </mxCell>
        <mxCell id="MKbB5JOdqE88hXex_plG-44" value="Appointment" style="swimlane;fontStyle=1;align=center;verticalAlign=top;childLayout=stackLayout;horizontal=1;startSize=33.45454545454545;horizontalStack=0;resizeParent=1;resizeParentMax=0;resizeLast=0;collapsible=0;marginBottom=0;" parent="1" vertex="1">
          <mxGeometry x="1810" y="-210" width="265" height="182.45454545454544" as="geometry" />
        </mxCell>
        <mxCell id="MKbB5JOdqE88hXex_plG-45" value="- dateTime: LocalDateTime    " style="text;strokeColor=none;fillColor=none;align=left;verticalAlign=top;spacingLeft=4;spacingRight=4;overflow=hidden;rotatable=0;points=[[0,0.5],[1,0.5]];portConstraint=eastwest;" parent="MKbB5JOdqE88hXex_plG-44" vertex="1">
          <mxGeometry y="33.45454545454545" width="265" height="33" as="geometry" />
        </mxCell>
        <mxCell id="MKbB5JOdqE88hXex_plG-46" value="- doctor: Doctor" style="text;strokeColor=none;fillColor=none;align=left;verticalAlign=top;spacingLeft=4;spacingRight=4;overflow=hidden;rotatable=0;points=[[0,0.5],[1,0.5]];portConstraint=eastwest;" parent="MKbB5JOdqE88hXex_plG-44" vertex="1">
          <mxGeometry y="66.45454545454545" width="265" height="33" as="geometry" />
        </mxCell>
        <mxCell id="MKbB5JOdqE88hXex_plG-47" value="- patient: Patient" style="text;strokeColor=none;fillColor=none;align=left;verticalAlign=top;spacingLeft=4;spacingRight=4;overflow=hidden;rotatable=0;points=[[0,0.5],[1,0.5]];portConstraint=eastwest;" parent="MKbB5JOdqE88hXex_plG-44" vertex="1">
          <mxGeometry y="99.45454545454545" width="265" height="33" as="geometry" />
        </mxCell>
        <mxCell id="MKbB5JOdqE88hXex_plG-48" value="- status: String" style="text;strokeColor=none;fillColor=none;align=left;verticalAlign=top;spacingLeft=4;spacingRight=4;overflow=hidden;rotatable=0;points=[[0,0.5],[1,0.5]];portConstraint=eastwest;" parent="MKbB5JOdqE88hXex_plG-44" vertex="1">
          <mxGeometry y="132.45454545454544" width="265" height="33" as="geometry" />
        </mxCell>
        <mxCell id="MKbB5JOdqE88hXex_plG-49" style="line;strokeWidth=1;fillColor=none;align=left;verticalAlign=middle;spacingTop=-1;spacingLeft=3;spacingRight=3;rotatable=0;labelPosition=right;points=[];portConstraint=eastwest;strokeColor=inherit;" parent="MKbB5JOdqE88hXex_plG-44" vertex="1">
          <mxGeometry y="165.45454545454544" width="265" height="17" as="geometry" />
        </mxCell>
        <mxCell id="MKbB5JOdqE88hXex_plG-50" value="AppointmentManager" style="swimlane;fontStyle=1;align=center;verticalAlign=top;childLayout=stackLayout;horizontal=1;startSize=34.54545454545455;horizontalStack=0;resizeParent=1;resizeParentMax=0;resizeLast=0;collapsible=0;marginBottom=0;" parent="1" vertex="1">
          <mxGeometry x="1750" y="-590" width="543" height="259.99545454545455" as="geometry" />
        </mxCell>
        <mxCell id="nwuAQOCsM4HNO6WuRVP9-4" value="&amp;nbsp;- &lt;u&gt;appointments: ArrayList&amp;lt;Appointment&amp;gt;&lt;/u&gt;&lt;div&gt;&amp;nbsp;-&amp;nbsp;&lt;u&gt;appointments: ArrayList&amp;lt;VideoCall&amp;gt;&lt;/u&gt;&lt;u&gt;&lt;/u&gt;&lt;/div&gt;" style="text;html=1;align=left;verticalAlign=middle;whiteSpace=wrap;rounded=0;" parent="MKbB5JOdqE88hXex_plG-50" vertex="1">
          <mxGeometry y="34.54545454545455" width="543" height="55.45" as="geometry" />
        </mxCell>
        <mxCell id="MKbB5JOdqE88hXex_plG-51" style="line;strokeWidth=1;fillColor=none;align=left;verticalAlign=middle;spacingTop=-1;spacingLeft=3;spacingRight=3;rotatable=0;labelPosition=right;points=[];portConstraint=eastwest;strokeColor=inherit;" parent="MKbB5JOdqE88hXex_plG-50" vertex="1">
          <mxGeometry y="89.99545454545455" width="543" height="55.45" as="geometry" />
        </mxCell>
        <mxCell id="MKbB5JOdqE88hXex_plG-53" value="+ requestAppointment(Appointment appointment): void&#xa;+ approveAppointment(Appointment appointment): void&#xa;+ cancelAppointment(Appointment appointment): void&#xa;+ requestVideoCall(VideoCall videocall): void&#xa;+ approveVideoCall(Videocall videocall): void&#xa;+ cancelVideoCall(VideoCall videocall): void" style="text;strokeColor=none;fillColor=none;align=left;verticalAlign=top;spacingLeft=4;spacingRight=4;overflow=hidden;rotatable=0;points=[[0,0.5],[1,0.5]];portConstraint=eastwest;fontStyle=4" parent="MKbB5JOdqE88hXex_plG-50" vertex="1">
          <mxGeometry y="145.44545454545454" width="543" height="114.55" as="geometry" />
        </mxCell>
        <mxCell id="MKbB5JOdqE88hXex_plG-56" value="ChatMessage" style="swimlane;fontStyle=1;align=center;verticalAlign=top;childLayout=stackLayout;horizontal=1;startSize=32;horizontalStack=0;resizeParent=1;resizeParentMax=0;resizeLast=0;collapsible=0;marginBottom=0;" parent="1" vertex="1">
          <mxGeometry x="-1080" y="1410" width="267" height="238" as="geometry" />
        </mxCell>
        <mxCell id="MKbB5JOdqE88hXex_plG-57" value="- senderId: String" style="text;strokeColor=none;fillColor=none;align=left;verticalAlign=top;spacingLeft=4;spacingRight=4;overflow=hidden;rotatable=0;points=[[0,0.5],[1,0.5]];portConstraint=eastwest;" parent="MKbB5JOdqE88hXex_plG-56" vertex="1">
          <mxGeometry y="32" width="267" height="32" as="geometry" />
        </mxCell>
        <mxCell id="MKbB5JOdqE88hXex_plG-58" value="- senderName: String" style="text;strokeColor=none;fillColor=none;align=left;verticalAlign=top;spacingLeft=4;spacingRight=4;overflow=hidden;rotatable=0;points=[[0,0.5],[1,0.5]];portConstraint=eastwest;" parent="MKbB5JOdqE88hXex_plG-56" vertex="1">
          <mxGeometry y="64" width="267" height="32" as="geometry" />
        </mxCell>
        <mxCell id="MKbB5JOdqE88hXex_plG-59" value="- receiverId: String" style="text;strokeColor=none;fillColor=none;align=left;verticalAlign=top;spacingLeft=4;spacingRight=4;overflow=hidden;rotatable=0;points=[[0,0.5],[1,0.5]];portConstraint=eastwest;" parent="MKbB5JOdqE88hXex_plG-56" vertex="1">
          <mxGeometry y="96" width="267" height="32" as="geometry" />
        </mxCell>
        <mxCell id="MKbB5JOdqE88hXex_plG-60" value="+ content: String" style="text;strokeColor=none;fillColor=none;align=left;verticalAlign=top;spacingLeft=4;spacingRight=4;overflow=hidden;rotatable=0;points=[[0,0.5],[1,0.5]];portConstraint=eastwest;" parent="MKbB5JOdqE88hXex_plG-56" vertex="1">
          <mxGeometry y="128" width="267" height="32" as="geometry" />
        </mxCell>
        <mxCell id="MKbB5JOdqE88hXex_plG-61" value="+ timestamp: LocalDateTime" style="text;strokeColor=none;fillColor=none;align=left;verticalAlign=top;spacingLeft=4;spacingRight=4;overflow=hidden;rotatable=0;points=[[0,0.5],[1,0.5]];portConstraint=eastwest;" parent="MKbB5JOdqE88hXex_plG-56" vertex="1">
          <mxGeometry y="160" width="267" height="32" as="geometry" />
        </mxCell>
        <mxCell id="nwuAQOCsM4HNO6WuRVP9-14" value="&lt;u&gt;- : long&lt;/u&gt;" style="text;html=1;align=left;verticalAlign=middle;whiteSpace=wrap;rounded=0;" parent="MKbB5JOdqE88hXex_plG-56" vertex="1">
          <mxGeometry y="192" width="267" height="30" as="geometry" />
        </mxCell>
        <mxCell id="MKbB5JOdqE88hXex_plG-62" style="line;strokeWidth=1;fillColor=none;align=left;verticalAlign=middle;spacingTop=-1;spacingLeft=3;spacingRight=3;rotatable=0;labelPosition=right;points=[];portConstraint=eastwest;strokeColor=inherit;" parent="MKbB5JOdqE88hXex_plG-56" vertex="1">
          <mxGeometry y="222" width="267" height="16" as="geometry" />
        </mxCell>
        <mxCell id="MKbB5JOdqE88hXex_plG-74" value="VideoCall" style="swimlane;fontStyle=1;align=center;verticalAlign=top;childLayout=stackLayout;horizontal=1;startSize=30.933333333333334;horizontalStack=0;resizeParent=1;resizeParentMax=0;resizeLast=0;collapsible=0;marginBottom=0;" parent="1" vertex="1">
          <mxGeometry x="-450" y="2100" width="247" height="253.86333333333334" as="geometry" />
        </mxCell>
        <mxCell id="MKbB5JOdqE88hXex_plG-75" value="+ doctor: Doctor" style="text;strokeColor=none;fillColor=none;align=left;verticalAlign=top;spacingLeft=4;spacingRight=4;overflow=hidden;rotatable=0;points=[[0,0.5],[1,0.5]];portConstraint=eastwest;" parent="MKbB5JOdqE88hXex_plG-74" vertex="1">
          <mxGeometry y="30.933333333333334" width="247" height="31" as="geometry" />
        </mxCell>
        <mxCell id="MKbB5JOdqE88hXex_plG-76" value="+ patient: Patient" style="text;strokeColor=none;fillColor=none;align=left;verticalAlign=top;spacingLeft=4;spacingRight=4;overflow=hidden;rotatable=0;points=[[0,0.5],[1,0.5]];portConstraint=eastwest;" parent="MKbB5JOdqE88hXex_plG-74" vertex="1">
          <mxGeometry y="61.93333333333334" width="247" height="31" as="geometry" />
        </mxCell>
        <mxCell id="MKbB5JOdqE88hXex_plG-77" value="+ startTime: LocalDateTime" style="text;strokeColor=none;fillColor=none;align=left;verticalAlign=top;spacingLeft=4;spacingRight=4;overflow=hidden;rotatable=0;points=[[0,0.5],[1,0.5]];portConstraint=eastwest;" parent="MKbB5JOdqE88hXex_plG-74" vertex="1">
          <mxGeometry y="92.93333333333334" width="247" height="31" as="geometry" />
        </mxCell>
        <mxCell id="MKbB5JOdqE88hXex_plG-78" value="+ endTime: LocalDateTime" style="text;strokeColor=none;fillColor=none;align=left;verticalAlign=top;spacingLeft=4;spacingRight=4;overflow=hidden;rotatable=0;points=[[0,0.5],[1,0.5]];portConstraint=eastwest;" parent="MKbB5JOdqE88hXex_plG-74" vertex="1">
          <mxGeometry y="123.93333333333334" width="247" height="31" as="geometry" />
        </mxCell>
        <mxCell id="MKbB5JOdqE88hXex_plG-79" value="+ link: String" style="text;strokeColor=none;fillColor=none;align=left;verticalAlign=top;spacingLeft=4;spacingRight=4;overflow=hidden;rotatable=0;points=[[0,0.5],[1,0.5]];portConstraint=eastwest;" parent="MKbB5JOdqE88hXex_plG-74" vertex="1">
          <mxGeometry y="154.93333333333334" width="247" height="31" as="geometry" />
        </mxCell>
        <mxCell id="MKbB5JOdqE88hXex_plG-80" value="+ status: String" style="text;strokeColor=none;fillColor=none;align=left;verticalAlign=top;spacingLeft=4;spacingRight=4;overflow=hidden;rotatable=0;points=[[0,0.5],[1,0.5]];portConstraint=eastwest;" parent="MKbB5JOdqE88hXex_plG-74" vertex="1">
          <mxGeometry y="185.93333333333334" width="247" height="31" as="geometry" />
        </mxCell>
        <mxCell id="MKbB5JOdqE88hXex_plG-81" style="line;strokeWidth=1;fillColor=none;align=left;verticalAlign=middle;spacingTop=-1;spacingLeft=3;spacingRight=3;rotatable=0;labelPosition=right;points=[];portConstraint=eastwest;strokeColor=inherit;" parent="MKbB5JOdqE88hXex_plG-74" vertex="1">
          <mxGeometry y="216.93333333333334" width="247" height="6.93" as="geometry" />
        </mxCell>
        <mxCell id="euu6ToIqH1oOXl2yIwQL-95" value="&amp;nbsp;+ startCall(): String" style="text;html=1;align=left;verticalAlign=middle;whiteSpace=wrap;rounded=0;" vertex="1" parent="MKbB5JOdqE88hXex_plG-74">
          <mxGeometry y="223.86333333333334" width="247" height="30" as="geometry" />
        </mxCell>
        <mxCell id="MKbB5JOdqE88hXex_plG-82" value="PanicButton" style="swimlane;fontStyle=1;align=center;verticalAlign=top;childLayout=stackLayout;horizontal=1;startSize=47.2;horizontalStack=0;resizeParent=1;resizeParentMax=0;resizeLast=0;collapsible=0;marginBottom=0;" parent="1" vertex="1">
          <mxGeometry x="-580" y="-260" width="516" height="102.2" as="geometry" />
        </mxCell>
        <mxCell id="MKbB5JOdqE88hXex_plG-83" style="line;strokeWidth=1;fillColor=none;align=left;verticalAlign=middle;spacingTop=-1;spacingLeft=3;spacingRight=3;rotatable=0;labelPosition=right;points=[];portConstraint=eastwest;strokeColor=inherit;" parent="MKbB5JOdqE88hXex_plG-82" vertex="1">
          <mxGeometry y="47.2" width="516" height="8" as="geometry" />
        </mxCell>
        <mxCell id="MKbB5JOdqE88hXex_plG-84" value="+ pressPanicButton(String message, Patient patient): void" style="text;strokeColor=none;fillColor=none;align=left;verticalAlign=top;spacingLeft=4;spacingRight=4;overflow=hidden;rotatable=0;points=[[0,0.5],[1,0.5]];portConstraint=eastwest;fontStyle=4" parent="MKbB5JOdqE88hXex_plG-82" vertex="1">
          <mxGeometry y="55.2" width="516" height="47" as="geometry" />
        </mxCell>
        <mxCell id="MKbB5JOdqE88hXex_plG-85" value="NotificationService" style="swimlane;fontStyle=1;align=center;verticalAlign=top;childLayout=stackLayout;horizontal=1;startSize=47.2;horizontalStack=0;resizeParent=1;resizeParentMax=0;resizeLast=0;collapsible=0;marginBottom=0;" parent="1" vertex="1">
          <mxGeometry x="-580" y="-100" width="489" height="130" as="geometry" />
        </mxCell>
        <mxCell id="MKbB5JOdqE88hXex_plG-86" style="line;strokeWidth=1;fillColor=none;align=left;verticalAlign=middle;spacingTop=-1;spacingLeft=3;spacingRight=3;rotatable=0;labelPosition=right;points=[];portConstraint=eastwest;strokeColor=inherit;" parent="MKbB5JOdqE88hXex_plG-85" vertex="1">
          <mxGeometry y="47.2" width="489" height="8" as="geometry" />
        </mxCell>
        <mxCell id="MKbB5JOdqE88hXex_plG-87" value="+ sendAlert(String message, Patient patient): void&#xa;+ sendEmail(String subject, String message, Patient patient): void&#xa;+ sendSMS(String message, Patient patient): void" style="text;strokeColor=none;fillColor=none;align=left;verticalAlign=top;spacingLeft=4;spacingRight=4;overflow=hidden;rotatable=0;points=[[0,0.5],[1,0.5]];portConstraint=eastwest;fontStyle=4" parent="MKbB5JOdqE88hXex_plG-85" vertex="1">
          <mxGeometry y="55.2" width="489" height="74.8" as="geometry" />
        </mxCell>
        <mxCell id="MKbB5JOdqE88hXex_plG-88" value="EmergencyAlert" style="swimlane;fontStyle=1;align=center;verticalAlign=top;childLayout=stackLayout;horizontal=1;startSize=40.57142857142857;horizontalStack=0;resizeParent=1;resizeParentMax=0;resizeLast=0;collapsible=0;marginBottom=0;" parent="1" vertex="1">
          <mxGeometry x="-580" y="90" width="523" height="130.57142857142856" as="geometry" />
        </mxCell>
        <mxCell id="MKbB5JOdqE88hXex_plG-89" style="line;strokeWidth=1;fillColor=none;align=left;verticalAlign=middle;spacingTop=-1;spacingLeft=3;spacingRight=3;rotatable=0;labelPosition=right;points=[];portConstraint=eastwest;strokeColor=inherit;" parent="MKbB5JOdqE88hXex_plG-88" vertex="1">
          <mxGeometry y="40.57142857142857" width="523" height="8" as="geometry" />
        </mxCell>
        <mxCell id="MKbB5JOdqE88hXex_plG-90" value="+ isVitalSignAbnormal(VitalSign vital) boolean" style="text;strokeColor=none;fillColor=none;align=left;verticalAlign=top;spacingLeft=4;spacingRight=4;overflow=hidden;rotatable=0;points=[[0,0.5],[1,0.5]];portConstraint=eastwest;fontStyle=4" parent="MKbB5JOdqE88hXex_plG-88" vertex="1">
          <mxGeometry y="48.57142857142857" width="523" height="41" as="geometry" />
        </mxCell>
        <mxCell id="MKbB5JOdqE88hXex_plG-91" value="+ checkVitalSigns(Patient patient, VitalSign vital): String" style="text;strokeColor=none;fillColor=none;align=left;verticalAlign=top;spacingLeft=4;spacingRight=4;overflow=hidden;rotatable=0;points=[[0,0.5],[1,0.5]];portConstraint=eastwest;fontStyle=4" parent="MKbB5JOdqE88hXex_plG-88" vertex="1">
          <mxGeometry y="89.57142857142857" width="523" height="41" as="geometry" />
        </mxCell>
        <mxCell id="MKbB5JOdqE88hXex_plG-92" value="LoginScreen" style="swimlane;fontStyle=1;align=center;verticalAlign=top;childLayout=stackLayout;horizontal=1;startSize=47.2;horizontalStack=0;resizeParent=1;resizeParentMax=0;resizeLast=0;collapsible=0;marginBottom=0;" parent="1" vertex="1">
          <mxGeometry x="-1076" y="485" width="400" height="130" as="geometry" />
        </mxCell>
        <mxCell id="MKbB5JOdqE88hXex_plG-93" style="line;strokeWidth=1;fillColor=none;align=left;verticalAlign=middle;spacingTop=-1;spacingLeft=3;spacingRight=3;rotatable=0;labelPosition=right;points=[];portConstraint=eastwest;strokeColor=inherit;" parent="MKbB5JOdqE88hXex_plG-92" vertex="1">
          <mxGeometry y="47.2" width="400" height="8" as="geometry" />
        </mxCell>
        <mxCell id="MKbB5JOdqE88hXex_plG-94" value="+ start(Stage primaryStage): void&#xa;-  showAlert(String message): void&#xa;+ authenticateUser(String username, String password, String role): User&#xa;-  createSampleData(): void    " style="text;strokeColor=none;fillColor=none;align=left;verticalAlign=top;spacingLeft=4;spacingRight=4;overflow=hidden;rotatable=0;points=[[0,0.5],[1,0.5]];portConstraint=eastwest;" parent="MKbB5JOdqE88hXex_plG-92" vertex="1">
          <mxGeometry y="55.2" width="400" height="74.8" as="geometry" />
        </mxCell>
        <mxCell id="MKbB5JOdqE88hXex_plG-98" value="DoctorDashboard" style="swimlane;fontStyle=1;align=center;verticalAlign=top;childLayout=stackLayout;horizontal=1;startSize=47.2;horizontalStack=0;resizeParent=1;resizeParentMax=0;resizeLast=0;collapsible=0;marginBottom=0;" parent="1" vertex="1">
          <mxGeometry x="-510" y="690" width="430" height="160" as="geometry" />
        </mxCell>
        <mxCell id="euu6ToIqH1oOXl2yIwQL-120" value="&amp;nbsp;- doctor: Doctor&lt;div&gt;&amp;nbsp;- reminderShown: boolean&lt;/div&gt;" style="text;html=1;align=left;verticalAlign=middle;whiteSpace=wrap;rounded=0;" vertex="1" parent="MKbB5JOdqE88hXex_plG-98">
          <mxGeometry y="47.2" width="430" height="30" as="geometry" />
        </mxCell>
        <mxCell id="MKbB5JOdqE88hXex_plG-99" style="line;strokeWidth=1;fillColor=none;align=left;verticalAlign=middle;spacingTop=-1;spacingLeft=3;spacingRight=3;rotatable=0;labelPosition=right;points=[];portConstraint=eastwest;strokeColor=inherit;" parent="MKbB5JOdqE88hXex_plG-98" vertex="1">
          <mxGeometry y="77.2" width="430" height="8" as="geometry" />
        </mxCell>
        <mxCell id="MKbB5JOdqE88hXex_plG-100" value="+ start(Stage stage): void&#xa;-  showVitalsPopup(Patient patient): void&#xa;-  showFeedbackDialog(Patient patient): void" style="text;strokeColor=none;fillColor=none;align=left;verticalAlign=top;spacingLeft=4;spacingRight=4;overflow=hidden;rotatable=0;points=[[0,0.5],[1,0.5]];portConstraint=eastwest;" parent="MKbB5JOdqE88hXex_plG-98" vertex="1">
          <mxGeometry y="85.2" width="430" height="74.8" as="geometry" />
        </mxCell>
        <mxCell id="MKbB5JOdqE88hXex_plG-101" value="PatientDashboard" style="swimlane;fontStyle=1;align=center;verticalAlign=top;childLayout=stackLayout;horizontal=1;startSize=47.2;horizontalStack=0;resizeParent=1;resizeParentMax=0;resizeLast=0;collapsible=0;marginBottom=0;" parent="1" vertex="1">
          <mxGeometry x="-500" y="485" width="420" height="139.8" as="geometry" />
        </mxCell>
        <mxCell id="euu6ToIqH1oOXl2yIwQL-117" value="&amp;nbsp;- patient: Patient&lt;div&gt;&amp;nbsp;- reminderShown: boolean&lt;/div&gt;" style="text;html=1;align=left;verticalAlign=middle;whiteSpace=wrap;rounded=0;" vertex="1" parent="MKbB5JOdqE88hXex_plG-101">
          <mxGeometry y="47.2" width="420" height="32.8" as="geometry" />
        </mxCell>
        <mxCell id="MKbB5JOdqE88hXex_plG-102" style="line;strokeWidth=1;fillColor=none;align=left;verticalAlign=middle;spacingTop=-1;spacingLeft=3;spacingRight=3;rotatable=0;labelPosition=right;points=[];portConstraint=eastwest;strokeColor=inherit;" parent="MKbB5JOdqE88hXex_plG-101" vertex="1">
          <mxGeometry y="80" width="420" height="12.8" as="geometry" />
        </mxCell>
        <mxCell id="MKbB5JOdqE88hXex_plG-103" value="+ start(Stage stage): void&#xa;+ showAlert(String message): void" style="text;strokeColor=none;fillColor=none;align=left;verticalAlign=top;spacingLeft=4;spacingRight=4;overflow=hidden;rotatable=0;points=[[0,0.5],[1,0.5]];portConstraint=eastwest;" parent="MKbB5JOdqE88hXex_plG-101" vertex="1">
          <mxGeometry y="92.8" width="420" height="47" as="geometry" />
        </mxCell>
        <mxCell id="MKbB5JOdqE88hXex_plG-104" value="ChatWindow" style="swimlane;fontStyle=1;align=center;verticalAlign=top;childLayout=stackLayout;horizontal=1;startSize=47.2;horizontalStack=0;resizeParent=1;resizeParentMax=0;resizeLast=0;collapsible=0;marginBottom=0;" parent="1" vertex="1">
          <mxGeometry x="-810" y="870" width="540" height="330" as="geometry" />
        </mxCell>
        <mxCell id="euu6ToIqH1oOXl2yIwQL-122" value="&amp;nbsp;- currentUser: User&lt;div&gt;&amp;nbsp;- chatPartner: User&lt;/div&gt;&lt;div&gt;&amp;nbsp;- stage: Stage&lt;/div&gt;&lt;div&gt;&amp;nbsp;- chatArea: TextArea&lt;/div&gt;&lt;div&gt;&amp;nbsp;- socket: Socket&lt;/div&gt;&lt;div&gt;&amp;nbsp;- in: ObjectInputStream&lt;/div&gt;&lt;div&gt;&amp;nbsp;- out: ObjectOutputStream&lt;/div&gt;&lt;div&gt;&amp;nbsp;- isConnected: boolean&lt;/div&gt;&lt;div&gt;&amp;nbsp;- receiveThread: thread&lt;/div&gt;&lt;div&gt;&amp;nbsp;- messageField: Textfield&lt;/div&gt;" style="text;html=1;align=left;verticalAlign=middle;whiteSpace=wrap;rounded=0;" vertex="1" parent="MKbB5JOdqE88hXex_plG-104">
          <mxGeometry y="47.2" width="540" height="152.8" as="geometry" />
        </mxCell>
        <mxCell id="MKbB5JOdqE88hXex_plG-105" style="line;strokeWidth=1;fillColor=none;align=left;verticalAlign=middle;spacingTop=-1;spacingLeft=3;spacingRight=3;rotatable=0;labelPosition=right;points=[];portConstraint=eastwest;strokeColor=inherit;" parent="MKbB5JOdqE88hXex_plG-104" vertex="1">
          <mxGeometry y="200" width="540" height="8" as="geometry" />
        </mxCell>
        <mxCell id="MKbB5JOdqE88hXex_plG-106" value="+ show(): void&#xa;- loadChatHistory(): void&#xa;- connectToServer(Label statusLabel): void &#xa;- receiveMessages(): void&#xa;- sendMessage(String content): void&#xa;- appendMessage(ChatMessage message): void&#xa;- disconnect(): void" style="text;strokeColor=none;fillColor=none;align=left;verticalAlign=top;spacingLeft=4;spacingRight=4;overflow=hidden;rotatable=0;points=[[0,0.5],[1,0.5]];portConstraint=eastwest;" parent="MKbB5JOdqE88hXex_plG-104" vertex="1">
          <mxGeometry y="208" width="540" height="122" as="geometry" />
        </mxCell>
        <mxCell id="MKbB5JOdqE88hXex_plG-107" value="VitalSign" style="swimlane;fontStyle=1;align=center;verticalAlign=top;childLayout=stackLayout;horizontal=1;startSize=30.933333333333334;horizontalStack=0;resizeParent=1;resizeParentMax=0;resizeLast=0;collapsible=0;marginBottom=0;" parent="1" vertex="1">
          <mxGeometry x="1790" y="672" width="310" height="231.93333333333334" as="geometry" />
        </mxCell>
        <mxCell id="MKbB5JOdqE88hXex_plG-108" value="- PATIENT_ID: String" style="text;strokeColor=none;fillColor=none;align=left;verticalAlign=top;spacingLeft=4;spacingRight=4;overflow=hidden;rotatable=0;points=[[0,0.5],[1,0.5]];portConstraint=eastwest;" parent="MKbB5JOdqE88hXex_plG-107" vertex="1">
          <mxGeometry y="30.933333333333334" width="310" height="31" as="geometry" />
        </mxCell>
        <mxCell id="MKbB5JOdqE88hXex_plG-109" value="- heartRate: double" style="text;strokeColor=none;fillColor=none;align=left;verticalAlign=top;spacingLeft=4;spacingRight=4;overflow=hidden;rotatable=0;points=[[0,0.5],[1,0.5]];portConstraint=eastwest;" parent="MKbB5JOdqE88hXex_plG-107" vertex="1">
          <mxGeometry y="61.93333333333334" width="310" height="31" as="geometry" />
        </mxCell>
        <mxCell id="MKbB5JOdqE88hXex_plG-110" value="- oxygenLevel: double" style="text;strokeColor=none;fillColor=none;align=left;verticalAlign=top;spacingLeft=4;spacingRight=4;overflow=hidden;rotatable=0;points=[[0,0.5],[1,0.5]];portConstraint=eastwest;" parent="MKbB5JOdqE88hXex_plG-107" vertex="1">
          <mxGeometry y="92.93333333333334" width="310" height="31" as="geometry" />
        </mxCell>
        <mxCell id="MKbB5JOdqE88hXex_plG-111" value="- bloodPressure: String" style="text;strokeColor=none;fillColor=none;align=left;verticalAlign=top;spacingLeft=4;spacingRight=4;overflow=hidden;rotatable=0;points=[[0,0.5],[1,0.5]];portConstraint=eastwest;" parent="MKbB5JOdqE88hXex_plG-107" vertex="1">
          <mxGeometry y="123.93333333333334" width="310" height="31" as="geometry" />
        </mxCell>
        <mxCell id="MKbB5JOdqE88hXex_plG-112" value="- temperature: double" style="text;strokeColor=none;fillColor=none;align=left;verticalAlign=top;spacingLeft=4;spacingRight=4;overflow=hidden;rotatable=0;points=[[0,0.5],[1,0.5]];portConstraint=eastwest;" parent="MKbB5JOdqE88hXex_plG-107" vertex="1">
          <mxGeometry y="154.93333333333334" width="310" height="31" as="geometry" />
        </mxCell>
        <mxCell id="MKbB5JOdqE88hXex_plG-113" value="- dateTimeRecorded: LocalDateTime" style="text;strokeColor=none;fillColor=none;align=left;verticalAlign=top;spacingLeft=4;spacingRight=4;overflow=hidden;rotatable=0;points=[[0,0.5],[1,0.5]];portConstraint=eastwest;" parent="MKbB5JOdqE88hXex_plG-107" vertex="1">
          <mxGeometry y="185.93333333333334" width="310" height="31" as="geometry" />
        </mxCell>
        <mxCell id="MKbB5JOdqE88hXex_plG-114" style="line;strokeWidth=1;fillColor=none;align=left;verticalAlign=middle;spacingTop=-1;spacingLeft=3;spacingRight=3;rotatable=0;labelPosition=right;points=[];portConstraint=eastwest;strokeColor=inherit;" parent="MKbB5JOdqE88hXex_plG-107" vertex="1">
          <mxGeometry y="216.93333333333334" width="310" height="15" as="geometry" />
        </mxCell>
        <mxCell id="MKbB5JOdqE88hXex_plG-115" value="VitalsDatabase" style="swimlane;fontStyle=1;align=center;verticalAlign=top;childLayout=stackLayout;horizontal=1;startSize=45.333333333333336;horizontalStack=0;resizeParent=1;resizeParentMax=0;resizeLast=0;collapsible=0;marginBottom=0;" parent="1" vertex="1">
          <mxGeometry x="1800" y="262" width="362" height="280.00333333333333" as="geometry" />
        </mxCell>
        <mxCell id="MKbB5JOdqE88hXex_plG-116" value="- vitals: ArrayList&lt;VitalSign&gt;" style="text;strokeColor=none;fillColor=none;align=left;verticalAlign=top;spacingLeft=4;spacingRight=4;overflow=hidden;rotatable=0;points=[[0,0.5],[1,0.5]];portConstraint=eastwest;" parent="MKbB5JOdqE88hXex_plG-115" vertex="1">
          <mxGeometry y="45.333333333333336" width="362" height="24.67" as="geometry" />
        </mxCell>
        <mxCell id="JPKDzT9PxBV57--U5lvR-3" value="&amp;nbsp;-&lt;u&gt;&amp;nbsp;: String&lt;/u&gt;" style="text;html=1;align=left;verticalAlign=middle;whiteSpace=wrap;rounded=0;" parent="MKbB5JOdqE88hXex_plG-115" vertex="1">
          <mxGeometry y="70.00333333333333" width="362" height="30" as="geometry" />
        </mxCell>
        <mxCell id="JPKDzT9PxBV57--U5lvR-4" value="-&amp;nbsp; &amp;lt;&amp;lt;transient&amp;gt;&amp;gt; scene: Scene&lt;div&gt;&lt;br&gt;&lt;/div&gt;" style="text;html=1;align=left;verticalAlign=middle;whiteSpace=wrap;rounded=0;" parent="MKbB5JOdqE88hXex_plG-115" vertex="1">
          <mxGeometry y="100.00333333333333" width="362" height="30" as="geometry" />
        </mxCell>
        <mxCell id="JPKDzT9PxBV57--U5lvR-5" value="-&amp;nbsp; &amp;lt;&amp;lt;transient&amp;gt;&amp;gt; stage: Stage&lt;div&gt;&lt;br&gt;&lt;/div&gt;" style="text;html=1;align=left;verticalAlign=middle;whiteSpace=wrap;rounded=0;" parent="MKbB5JOdqE88hXex_plG-115" vertex="1">
          <mxGeometry y="130.00333333333333" width="362" height="30" as="geometry" />
        </mxCell>
        <mxCell id="MKbB5JOdqE88hXex_plG-117" style="line;strokeWidth=1;fillColor=none;align=left;verticalAlign=middle;spacingTop=-1;spacingLeft=3;spacingRight=3;rotatable=0;labelPosition=right;points=[];portConstraint=eastwest;strokeColor=inherit;" parent="MKbB5JOdqE88hXex_plG-115" vertex="1">
          <mxGeometry y="160.00333333333333" width="362" height="20" as="geometry" />
        </mxCell>
        <mxCell id="MKbB5JOdqE88hXex_plG-118" value="+ generateVitalsGraph(Stage stage): void&#xa;+ addVital(VitalSign vital): void&#xa;+ removeVital(VitalSign vital): void&#xa;+ readObject(ObjectInputStream in): void" style="text;strokeColor=none;fillColor=none;align=left;verticalAlign=top;spacingLeft=4;spacingRight=4;overflow=hidden;rotatable=0;points=[[0,0.5],[1,0.5]];portConstraint=eastwest;" parent="MKbB5JOdqE88hXex_plG-115" vertex="1">
          <mxGeometry y="180.00333333333333" width="362" height="100" as="geometry" />
        </mxCell>
        <mxCell id="MKbB5JOdqE88hXex_plG-119" value="&lt;&lt;interface&gt;&gt;&#xa;Notifiable" style="swimlane;fontStyle=1;align=center;verticalAlign=top;childLayout=stackLayout;horizontal=1;startSize=71;horizontalStack=0;resizeParent=1;resizeParentMax=0;resizeLast=0;collapsible=0;marginBottom=0;" parent="1" vertex="1">
          <mxGeometry x="-1495" y="-940" width="238" height="126" as="geometry" />
        </mxCell>
        <mxCell id="MKbB5JOdqE88hXex_plG-120" style="line;strokeWidth=1;fillColor=none;align=left;verticalAlign=middle;spacingTop=-1;spacingLeft=3;spacingRight=3;rotatable=0;labelPosition=right;points=[];portConstraint=eastwest;strokeColor=inherit;" parent="MKbB5JOdqE88hXex_plG-119" vertex="1">
          <mxGeometry y="71" width="238" height="8" as="geometry" />
        </mxCell>
        <mxCell id="MKbB5JOdqE88hXex_plG-121" value="+ sendNotification(): void" style="text;strokeColor=none;fillColor=none;align=left;verticalAlign=top;spacingLeft=4;spacingRight=4;overflow=hidden;rotatable=0;points=[[0,0.5],[1,0.5]];portConstraint=eastwest;" parent="MKbB5JOdqE88hXex_plG-119" vertex="1">
          <mxGeometry y="79" width="238" height="47" as="geometry" />
        </mxCell>
        <mxCell id="MKbB5JOdqE88hXex_plG-122" value="EmailNotification" style="swimlane;fontStyle=1;align=center;verticalAlign=top;childLayout=stackLayout;horizontal=1;startSize=35.55555555555556;horizontalStack=0;resizeParent=1;resizeParentMax=0;resizeLast=0;collapsible=0;marginBottom=0;" parent="1" vertex="1">
          <mxGeometry x="-1335" y="-736.1999999999998" width="247" height="161.55555555555554" as="geometry" />
        </mxCell>
        <mxCell id="MKbB5JOdqE88hXex_plG-123" value="+ recipientEmail: String" style="text;strokeColor=none;fillColor=none;align=left;verticalAlign=top;spacingLeft=4;spacingRight=4;overflow=hidden;rotatable=0;points=[[0,0.5],[1,0.5]];portConstraint=eastwest;" parent="MKbB5JOdqE88hXex_plG-122" vertex="1">
          <mxGeometry y="35.55555555555556" width="247" height="36" as="geometry" />
        </mxCell>
        <mxCell id="MKbB5JOdqE88hXex_plG-124" value="+ subject: String" style="text;strokeColor=none;fillColor=none;align=left;verticalAlign=top;spacingLeft=4;spacingRight=4;overflow=hidden;rotatable=0;points=[[0,0.5],[1,0.5]];portConstraint=eastwest;" parent="MKbB5JOdqE88hXex_plG-122" vertex="1">
          <mxGeometry y="71.55555555555556" width="247" height="36" as="geometry" />
        </mxCell>
        <mxCell id="MKbB5JOdqE88hXex_plG-125" value="+ message: String" style="text;strokeColor=none;fillColor=none;align=left;verticalAlign=top;spacingLeft=4;spacingRight=4;overflow=hidden;rotatable=0;points=[[0,0.5],[1,0.5]];portConstraint=eastwest;" parent="MKbB5JOdqE88hXex_plG-122" vertex="1">
          <mxGeometry y="107.55555555555556" width="247" height="36" as="geometry" />
        </mxCell>
        <mxCell id="MKbB5JOdqE88hXex_plG-126" style="line;strokeWidth=1;fillColor=none;align=left;verticalAlign=middle;spacingTop=-1;spacingLeft=3;spacingRight=3;rotatable=0;labelPosition=right;points=[];portConstraint=eastwest;strokeColor=inherit;" parent="MKbB5JOdqE88hXex_plG-122" vertex="1">
          <mxGeometry y="143.55555555555554" width="247" height="18" as="geometry" />
        </mxCell>
        <mxCell id="MKbB5JOdqE88hXex_plG-127" value="SMSNotification" style="swimlane;fontStyle=1;align=center;verticalAlign=top;childLayout=stackLayout;horizontal=1;startSize=38.857142857142854;horizontalStack=0;resizeParent=1;resizeParentMax=0;resizeLast=0;collapsible=0;marginBottom=0;" parent="1" vertex="1">
          <mxGeometry x="-1635" y="-736.1999999999998" width="237" height="135.85714285714286" as="geometry" />
        </mxCell>
        <mxCell id="MKbB5JOdqE88hXex_plG-128" value="+ phoneNumber: String" style="text;strokeColor=none;fillColor=none;align=left;verticalAlign=top;spacingLeft=4;spacingRight=4;overflow=hidden;rotatable=0;points=[[0,0.5],[1,0.5]];portConstraint=eastwest;" parent="MKbB5JOdqE88hXex_plG-127" vertex="1">
          <mxGeometry y="38.857142857142854" width="237" height="39" as="geometry" />
        </mxCell>
        <mxCell id="MKbB5JOdqE88hXex_plG-129" value="+ message: String" style="text;strokeColor=none;fillColor=none;align=left;verticalAlign=top;spacingLeft=4;spacingRight=4;overflow=hidden;rotatable=0;points=[[0,0.5],[1,0.5]];portConstraint=eastwest;" parent="MKbB5JOdqE88hXex_plG-127" vertex="1">
          <mxGeometry y="77.85714285714286" width="237" height="39" as="geometry" />
        </mxCell>
        <mxCell id="MKbB5JOdqE88hXex_plG-130" style="line;strokeWidth=1;fillColor=none;align=left;verticalAlign=middle;spacingTop=-1;spacingLeft=3;spacingRight=3;rotatable=0;labelPosition=right;points=[];portConstraint=eastwest;strokeColor=inherit;" parent="MKbB5JOdqE88hXex_plG-127" vertex="1">
          <mxGeometry y="116.85714285714286" width="237" height="19" as="geometry" />
        </mxCell>
        <mxCell id="MKbB5JOdqE88hXex_plG-131" value="ReminderService" style="swimlane;fontStyle=1;align=center;verticalAlign=top;childLayout=stackLayout;horizontal=1;startSize=36.888888888888886;horizontalStack=0;resizeParent=1;resizeParentMax=0;resizeLast=0;collapsible=0;marginBottom=0;" parent="1" vertex="1">
          <mxGeometry x="-1045" y="-900" width="344" height="210.99888888888887" as="geometry" />
        </mxCell>
        <mxCell id="nwuAQOCsM4HNO6WuRVP9-24" value="&amp;nbsp; ~ user: User" style="text;html=1;align=left;verticalAlign=middle;whiteSpace=wrap;rounded=0;" parent="MKbB5JOdqE88hXex_plG-131" vertex="1">
          <mxGeometry y="36.888888888888886" width="344" height="30" as="geometry" />
        </mxCell>
        <mxCell id="MKbB5JOdqE88hXex_plG-132" style="line;strokeWidth=1;fillColor=none;align=left;verticalAlign=middle;spacingTop=-1;spacingLeft=3;spacingRight=3;rotatable=0;labelPosition=right;points=[];portConstraint=eastwest;strokeColor=inherit;" parent="MKbB5JOdqE88hXex_plG-131" vertex="1">
          <mxGeometry y="66.88888888888889" width="344" height="33.11" as="geometry" />
        </mxCell>
        <mxCell id="MKbB5JOdqE88hXex_plG-133" value="+ getAppointmentReminders(): String" style="text;strokeColor=none;fillColor=none;align=left;verticalAlign=top;spacingLeft=4;spacingRight=4;overflow=hidden;rotatable=0;points=[[0,0.5],[1,0.5]];portConstraint=eastwest;" parent="MKbB5JOdqE88hXex_plG-131" vertex="1">
          <mxGeometry y="99.99888888888889" width="344" height="37" as="geometry" />
        </mxCell>
        <mxCell id="MKbB5JOdqE88hXex_plG-134" value="+ getMedicationReminders(): String" style="text;strokeColor=none;fillColor=none;align=left;verticalAlign=top;spacingLeft=4;spacingRight=4;overflow=hidden;rotatable=0;points=[[0,0.5],[1,0.5]];portConstraint=eastwest;" parent="MKbB5JOdqE88hXex_plG-131" vertex="1">
          <mxGeometry y="136.99888888888887" width="344" height="37" as="geometry" />
        </mxCell>
        <mxCell id="MKbB5JOdqE88hXex_plG-135" value="+ getApprovedVideoCalls(): String" style="text;strokeColor=none;fillColor=none;align=left;verticalAlign=top;spacingLeft=4;spacingRight=4;overflow=hidden;rotatable=0;points=[[0,0.5],[1,0.5]];portConstraint=eastwest;" parent="MKbB5JOdqE88hXex_plG-131" vertex="1">
          <mxGeometry y="173.99888888888887" width="344" height="37" as="geometry" />
        </mxCell>
        <mxCell id="MKbB5JOdqE88hXex_plG-136" value="Feedback" style="swimlane;fontStyle=1;align=center;verticalAlign=top;childLayout=stackLayout;horizontal=1;startSize=35.55555555555556;horizontalStack=0;resizeParent=1;resizeParentMax=0;resizeLast=0;collapsible=0;marginBottom=0;" parent="1" vertex="1">
          <mxGeometry x="480" y="1260" width="331" height="197.55555555555554" as="geometry" />
        </mxCell>
        <mxCell id="MKbB5JOdqE88hXex_plG-137" value="+ comments: String" style="text;strokeColor=none;fillColor=none;align=left;verticalAlign=top;spacingLeft=4;spacingRight=4;overflow=hidden;rotatable=0;points=[[0,0.5],[1,0.5]];portConstraint=eastwest;" parent="MKbB5JOdqE88hXex_plG-136" vertex="1">
          <mxGeometry y="35.55555555555556" width="331" height="36" as="geometry" />
        </mxCell>
        <mxCell id="MKbB5JOdqE88hXex_plG-138" value="+ prescriptions: ArrayList&lt;Prescription&gt; " style="text;strokeColor=none;fillColor=none;align=left;verticalAlign=top;spacingLeft=4;spacingRight=4;overflow=hidden;rotatable=0;points=[[0,0.5],[1,0.5]];portConstraint=eastwest;" parent="MKbB5JOdqE88hXex_plG-136" vertex="1">
          <mxGeometry y="71.55555555555556" width="331" height="36" as="geometry" />
        </mxCell>
        <mxCell id="MKbB5JOdqE88hXex_plG-139" value="+ datetime: LocalDateTime" style="text;strokeColor=none;fillColor=none;align=left;verticalAlign=top;spacingLeft=4;spacingRight=4;overflow=hidden;rotatable=0;points=[[0,0.5],[1,0.5]];portConstraint=eastwest;" parent="MKbB5JOdqE88hXex_plG-136" vertex="1">
          <mxGeometry y="107.55555555555556" width="331" height="36" as="geometry" />
        </mxCell>
        <mxCell id="MKbB5JOdqE88hXex_plG-140" style="line;strokeWidth=1;fillColor=none;align=left;verticalAlign=middle;spacingTop=-1;spacingLeft=3;spacingRight=3;rotatable=0;labelPosition=right;points=[];portConstraint=eastwest;strokeColor=inherit;" parent="MKbB5JOdqE88hXex_plG-136" vertex="1">
          <mxGeometry y="143.55555555555554" width="331" height="18" as="geometry" />
        </mxCell>
        <mxCell id="euu6ToIqH1oOXl2yIwQL-98" value="+ addPrescription(Prescription prescription): void" style="text;strokeColor=none;fillColor=none;align=left;verticalAlign=top;spacingLeft=4;spacingRight=4;overflow=hidden;rotatable=0;points=[[0,0.5],[1,0.5]];portConstraint=eastwest;fontStyle=4" vertex="1" parent="MKbB5JOdqE88hXex_plG-136">
          <mxGeometry y="161.55555555555554" width="331" height="36" as="geometry" />
        </mxCell>
        <mxCell id="MKbB5JOdqE88hXex_plG-141" value="Prescription" style="swimlane;fontStyle=1;align=center;verticalAlign=top;childLayout=stackLayout;horizontal=1;startSize=33.45454545454545;horizontalStack=0;resizeParent=1;resizeParentMax=0;resizeLast=0;collapsible=0;marginBottom=0;" parent="1" vertex="1">
          <mxGeometry x="877" y="1250" width="204" height="182.45454545454544" as="geometry" />
        </mxCell>
        <mxCell id="MKbB5JOdqE88hXex_plG-142" value="+ medication: String" style="text;strokeColor=none;fillColor=none;align=left;verticalAlign=top;spacingLeft=4;spacingRight=4;overflow=hidden;rotatable=0;points=[[0,0.5],[1,0.5]];portConstraint=eastwest;" parent="MKbB5JOdqE88hXex_plG-141" vertex="1">
          <mxGeometry y="33.45454545454545" width="204" height="33" as="geometry" />
        </mxCell>
        <mxCell id="MKbB5JOdqE88hXex_plG-143" value="+ dosage: String" style="text;strokeColor=none;fillColor=none;align=left;verticalAlign=top;spacingLeft=4;spacingRight=4;overflow=hidden;rotatable=0;points=[[0,0.5],[1,0.5]];portConstraint=eastwest;" parent="MKbB5JOdqE88hXex_plG-141" vertex="1">
          <mxGeometry y="66.45454545454545" width="204" height="33" as="geometry" />
        </mxCell>
        <mxCell id="MKbB5JOdqE88hXex_plG-144" value="+ schedule: String" style="text;strokeColor=none;fillColor=none;align=left;verticalAlign=top;spacingLeft=4;spacingRight=4;overflow=hidden;rotatable=0;points=[[0,0.5],[1,0.5]];portConstraint=eastwest;" parent="MKbB5JOdqE88hXex_plG-141" vertex="1">
          <mxGeometry y="99.45454545454545" width="204" height="33" as="geometry" />
        </mxCell>
        <mxCell id="MKbB5JOdqE88hXex_plG-145" value="+ notes: String" style="text;strokeColor=none;fillColor=none;align=left;verticalAlign=top;spacingLeft=4;spacingRight=4;overflow=hidden;rotatable=0;points=[[0,0.5],[1,0.5]];portConstraint=eastwest;" parent="MKbB5JOdqE88hXex_plG-141" vertex="1">
          <mxGeometry y="132.45454545454544" width="204" height="33" as="geometry" />
        </mxCell>
        <mxCell id="MKbB5JOdqE88hXex_plG-146" style="line;strokeWidth=1;fillColor=none;align=left;verticalAlign=middle;spacingTop=-1;spacingLeft=3;spacingRight=3;rotatable=0;labelPosition=right;points=[];portConstraint=eastwest;strokeColor=inherit;" parent="MKbB5JOdqE88hXex_plG-141" vertex="1">
          <mxGeometry y="165.45454545454544" width="204" height="17" as="geometry" />
        </mxCell>
        <mxCell id="MKbB5JOdqE88hXex_plG-147" value="ReportGenerator" style="swimlane;fontStyle=1;align=center;verticalAlign=top;childLayout=stackLayout;horizontal=1;startSize=47.2;horizontalStack=0;resizeParent=1;resizeParentMax=0;resizeLast=0;collapsible=0;marginBottom=0;" parent="1" vertex="1">
          <mxGeometry x="1530" y="1273.7800000000002" width="524" height="102.2" as="geometry" />
        </mxCell>
        <mxCell id="MKbB5JOdqE88hXex_plG-148" style="line;strokeWidth=1;fillColor=none;align=left;verticalAlign=middle;spacingTop=-1;spacingLeft=3;spacingRight=3;rotatable=0;labelPosition=right;points=[];portConstraint=eastwest;strokeColor=inherit;" parent="MKbB5JOdqE88hXex_plG-147" vertex="1">
          <mxGeometry y="47.2" width="524" height="8" as="geometry" />
        </mxCell>
        <mxCell id="MKbB5JOdqE88hXex_plG-149" value="+ generatePatientReport(Patient patient, File file): void" style="text;strokeColor=none;fillColor=none;align=left;verticalAlign=top;spacingLeft=4;spacingRight=4;overflow=hidden;rotatable=0;points=[[0,0.5],[1,0.5]];portConstraint=eastwest;fontStyle=4" parent="MKbB5JOdqE88hXex_plG-147" vertex="1">
          <mxGeometry y="55.2" width="524" height="47" as="geometry" />
        </mxCell>
        <mxCell id="MKbB5JOdqE88hXex_plG-150" value="DataManager" style="swimlane;fontStyle=1;align=center;verticalAlign=top;childLayout=stackLayout;horizontal=1;startSize=40.57142857142857;horizontalStack=0;resizeParent=1;resizeParentMax=0;resizeLast=0;collapsible=0;marginBottom=0;" parent="1" vertex="1">
          <mxGeometry x="-1370" y="-9.999999999999773" width="340" height="350.8614285714286" as="geometry" />
        </mxCell>
        <mxCell id="nwuAQOCsM4HNO6WuRVP9-15" value="&lt;u&gt;&amp;nbsp;- DATA_DIR: String&lt;/u&gt;&lt;div&gt;&lt;u&gt;&amp;nbsp;- DOCTORS_FILE: String&lt;/u&gt;&lt;u&gt;&lt;/u&gt;&lt;/div&gt;&lt;div&gt;&lt;u&gt;&amp;nbsp;- PATIENTS_FILE: String&lt;/u&gt;&lt;u&gt;&lt;/u&gt;&lt;/div&gt;&lt;div&gt;&lt;u&gt;&amp;nbsp;- ADMINS_FILE: String&lt;/u&gt;&lt;u&gt;&lt;/u&gt;&lt;/div&gt;&lt;div&gt;&lt;u&gt;&amp;nbsp;- APPOINTMENTS_FILE: String&lt;/u&gt;&lt;u&gt;&lt;/u&gt;&lt;/div&gt;&lt;div&gt;&lt;u&gt;&amp;nbsp;- VIDEOCALLS_FILE: String&lt;/u&gt;&lt;u&gt;&lt;/u&gt;&lt;/div&gt;&lt;div&gt;&lt;u&gt;&amp;nbsp;- CHAT_HISTORIES_FILE: String&lt;/u&gt;&lt;u&gt;&lt;/u&gt;&lt;/div&gt;&lt;div&gt;&lt;u&gt;&amp;nbsp;- LOGS_FILE: String&lt;/u&gt;&lt;/div&gt;&lt;div&gt;&lt;u&gt;-&amp;nbsp; chatHistories: ArrayList&amp;lt;ChatHistory&amp;gt;&lt;/u&gt;&lt;/div&gt;" style="text;html=1;align=left;verticalAlign=middle;whiteSpace=wrap;rounded=0;" parent="MKbB5JOdqE88hXex_plG-150" vertex="1">
          <mxGeometry y="40.57142857142857" width="340" height="129.43" as="geometry" />
        </mxCell>
        <mxCell id="MKbB5JOdqE88hXex_plG-151" style="line;strokeWidth=1;fillColor=none;align=left;verticalAlign=middle;spacingTop=-1;spacingLeft=3;spacingRight=3;rotatable=0;labelPosition=right;points=[];portConstraint=eastwest;strokeColor=inherit;" parent="MKbB5JOdqE88hXex_plG-150" vertex="1">
          <mxGeometry y="170.00142857142856" width="340" height="49.43" as="geometry" />
        </mxCell>
        <mxCell id="MKbB5JOdqE88hXex_plG-152" value="+ saveAllData(): void&#xa;+ loadAllData(): void&#xa;-  initDataDirectory: void&#xa;+ saveDoctor(Doctor doctor): void&#xa;+ savePatient(Patient patient): void&#xa;+ getChatHistory(String user1Id, String user2Id): ChatHistory&#xa;+ addChatMessage(ChatMessage message): void" style="text;strokeColor=none;fillColor=none;align=left;verticalAlign=top;spacingLeft=4;spacingRight=4;overflow=hidden;rotatable=0;points=[[0,0.5],[1,0.5]];portConstraint=eastwest;fontStyle=4" parent="MKbB5JOdqE88hXex_plG-150" vertex="1">
          <mxGeometry y="219.43142857142857" width="340" height="131.43" as="geometry" />
        </mxCell>
        <mxCell id="MKbB5JOdqE88hXex_plG-154" value="DateUtil" style="swimlane;fontStyle=1;align=center;verticalAlign=top;childLayout=stackLayout;horizontal=1;startSize=47.2;horizontalStack=0;resizeParent=1;resizeParentMax=0;resizeLast=0;collapsible=0;marginBottom=0;" parent="1" vertex="1">
          <mxGeometry x="-1370" y="-150" width="393" height="102.2" as="geometry" />
        </mxCell>
        <mxCell id="MKbB5JOdqE88hXex_plG-155" style="line;strokeWidth=1;fillColor=none;align=left;verticalAlign=middle;spacingTop=-1;spacingLeft=3;spacingRight=3;rotatable=0;labelPosition=right;points=[];portConstraint=eastwest;strokeColor=inherit;" parent="MKbB5JOdqE88hXex_plG-154" vertex="1">
          <mxGeometry y="47.2" width="393" height="8" as="geometry" />
        </mxCell>
        <mxCell id="MKbB5JOdqE88hXex_plG-156" value="+static String format(LocalDateTime dateTime)" style="text;strokeColor=none;fillColor=none;align=left;verticalAlign=top;spacingLeft=4;spacingRight=4;overflow=hidden;rotatable=0;points=[[0,0.5],[1,0.5]];portConstraint=eastwest;" parent="MKbB5JOdqE88hXex_plG-154" vertex="1">
          <mxGeometry y="55.2" width="393" height="47" as="geometry" />
        </mxCell>
        <mxCell id="MKbB5JOdqE88hXex_plG-157" value="SerializationUtil" style="swimlane;fontStyle=1;align=center;verticalAlign=top;childLayout=stackLayout;horizontal=1;startSize=40.57142857142857;horizontalStack=0;resizeParent=1;resizeParentMax=0;resizeLast=0;collapsible=0;marginBottom=0;" parent="1" vertex="1">
          <mxGeometry x="-1370" y="-310" width="509" height="130.57142857142856" as="geometry" />
        </mxCell>
        <mxCell id="MKbB5JOdqE88hXex_plG-158" style="line;strokeWidth=1;fillColor=none;align=left;verticalAlign=middle;spacingTop=-1;spacingLeft=3;spacingRight=3;rotatable=0;labelPosition=right;points=[];portConstraint=eastwest;strokeColor=inherit;" parent="MKbB5JOdqE88hXex_plG-157" vertex="1">
          <mxGeometry y="40.57142857142857" width="509" height="8" as="geometry" />
        </mxCell>
        <mxCell id="MKbB5JOdqE88hXex_plG-159" value="+ serializeObject(Object obj, String filePath): boolean" style="text;strokeColor=none;fillColor=none;align=left;verticalAlign=top;spacingLeft=4;spacingRight=4;overflow=hidden;rotatable=0;points=[[0,0.5],[1,0.5]];portConstraint=eastwest;fontStyle=4" parent="MKbB5JOdqE88hXex_plG-157" vertex="1">
          <mxGeometry y="48.57142857142857" width="509" height="41" as="geometry" />
        </mxCell>
        <mxCell id="MKbB5JOdqE88hXex_plG-160" value="+ deserializeObject(String filePath): &lt;T&gt; T" style="text;strokeColor=none;fillColor=none;align=left;verticalAlign=top;spacingLeft=4;spacingRight=4;overflow=hidden;rotatable=0;points=[[0,0.5],[1,0.5]];portConstraint=eastwest;fontStyle=4" parent="MKbB5JOdqE88hXex_plG-157" vertex="1">
          <mxGeometry y="89.57142857142857" width="509" height="41" as="geometry" />
        </mxCell>
        <mxCell id="MKbB5JOdqE88hXex_plG-162" value="" style="curved=1;startArrow=block;startSize=16;startFill=0;endArrow=none;rounded=0;exitX=0.893;exitY=1.071;exitDx=0;exitDy=0;exitPerimeter=0;entryX=0.368;entryY=0.026;entryDx=0;entryDy=0;entryPerimeter=0;" parent="1" source="MKbB5JOdqE88hXex_plG-14" target="MKbB5JOdqE88hXex_plG-27" edge="1">
          <mxGeometry relative="1" as="geometry">
            <Array as="points" />
            <mxPoint x="1110" y="-170" as="sourcePoint" />
            <mxPoint x="1400" y="510" as="targetPoint" />
          </mxGeometry>
        </mxCell>
        <mxCell id="MKbB5JOdqE88hXex_plG-163" value="" style="curved=1;startArrow=block;startSize=16;startFill=0;endArrow=none;entryX=0.963;entryY=0.017;rounded=0;entryDx=0;entryDy=0;entryPerimeter=0;exitX=0.17;exitY=0.962;exitDx=0;exitDy=0;exitPerimeter=0;" parent="1" source="MKbB5JOdqE88hXex_plG-14" edge="1">
          <mxGeometry relative="1" as="geometry">
            <Array as="points" />
            <mxPoint x="830" y="-200" as="sourcePoint" />
            <mxPoint x="827.4200000000001" y="34.76000000000022" as="targetPoint" />
          </mxGeometry>
        </mxCell>
        <mxCell id="MKbB5JOdqE88hXex_plG-195" value="Main" style="swimlane;fontStyle=1;align=center;verticalAlign=top;childLayout=stackLayout;horizontal=1;startSize=26;horizontalStack=0;resizeParent=1;resizeParentMax=0;resizeLast=0;collapsible=1;marginBottom=0;whiteSpace=wrap;html=1;" parent="1" vertex="1">
          <mxGeometry x="200" y="-840" width="370" height="100" as="geometry" />
        </mxCell>
        <mxCell id="MKbB5JOdqE88hXex_plG-196" value="+ CSS_PATH: String" style="text;strokeColor=none;fillColor=none;align=left;verticalAlign=top;spacingLeft=4;spacingRight=4;overflow=hidden;rotatable=0;points=[[0,0.5],[1,0.5]];portConstraint=eastwest;whiteSpace=wrap;html=1;" parent="MKbB5JOdqE88hXex_plG-195" vertex="1">
          <mxGeometry y="26" width="370" height="26" as="geometry" />
        </mxCell>
        <mxCell id="MKbB5JOdqE88hXex_plG-197" value="" style="line;strokeWidth=1;fillColor=none;align=left;verticalAlign=middle;spacingTop=-1;spacingLeft=3;spacingRight=3;rotatable=0;labelPosition=right;points=[];portConstraint=eastwest;strokeColor=inherit;" parent="MKbB5JOdqE88hXex_plG-195" vertex="1">
          <mxGeometry y="52" width="370" height="8" as="geometry" />
        </mxCell>
        <mxCell id="MKbB5JOdqE88hXex_plG-198" value="+ &lt;u&gt;initializeAppStyling: void&lt;/u&gt;&lt;div&gt;+ &lt;u&gt;getStyleSheets: String&lt;/u&gt;&lt;/div&gt;&lt;div&gt;&lt;br&gt;&lt;/div&gt;" style="text;strokeColor=none;fillColor=none;align=left;verticalAlign=top;spacingLeft=4;spacingRight=4;overflow=hidden;rotatable=0;points=[[0,0.5],[1,0.5]];portConstraint=eastwest;whiteSpace=wrap;html=1;" parent="MKbB5JOdqE88hXex_plG-195" vertex="1">
          <mxGeometry y="60" width="370" height="40" as="geometry" />
        </mxCell>
        <mxCell id="MKbB5JOdqE88hXex_plG-203" value="AdminDashboard" style="swimlane;fontStyle=1;align=center;verticalAlign=top;childLayout=stackLayout;horizontal=1;startSize=26;horizontalStack=0;resizeParent=1;resizeParentMax=0;resizeLast=0;collapsible=1;marginBottom=0;whiteSpace=wrap;html=1;" parent="1" vertex="1">
          <mxGeometry x="-1076" y="698" width="336" height="144" as="geometry" />
        </mxCell>
        <mxCell id="MKbB5JOdqE88hXex_plG-205" value="" style="line;strokeWidth=1;fillColor=none;align=left;verticalAlign=middle;spacingTop=-1;spacingLeft=3;spacingRight=3;rotatable=0;labelPosition=right;points=[];portConstraint=eastwest;strokeColor=inherit;" parent="MKbB5JOdqE88hXex_plG-203" vertex="1">
          <mxGeometry y="26" width="336" height="8" as="geometry" />
        </mxCell>
        <mxCell id="MKbB5JOdqE88hXex_plG-206" value="+ start(Stage primaryStage): void&lt;div&gt;-&amp;nbsp; createDoctorsTab(): Vbox&lt;/div&gt;&lt;div&gt;-&amp;nbsp; createPatientsTab(): Vbox&lt;/div&gt;&lt;div&gt;-&amp;nbsp; createAdminTab(): Vbox&lt;/div&gt;&lt;div&gt;-&amp;nbsp; createLogsTab(): Vbox&lt;/div&gt;&lt;div&gt;-&amp;nbsp; showAlert(String message): void&lt;/div&gt;" style="text;strokeColor=none;fillColor=none;align=left;verticalAlign=top;spacingLeft=4;spacingRight=4;overflow=hidden;rotatable=0;points=[[0,0.5],[1,0.5]];portConstraint=eastwest;whiteSpace=wrap;html=1;" parent="MKbB5JOdqE88hXex_plG-203" vertex="1">
          <mxGeometry y="34" width="336" height="110" as="geometry" />
        </mxCell>
        <mxCell id="MKbB5JOdqE88hXex_plG-213" value="Administrator" style="swimlane;fontStyle=1;align=center;verticalAlign=top;childLayout=stackLayout;horizontal=1;startSize=26;horizontalStack=0;resizeParent=1;resizeParentMax=0;resizeLast=0;collapsible=1;marginBottom=0;whiteSpace=wrap;html=1;" parent="1" vertex="1">
          <mxGeometry x="500" y="40" width="340" height="280" as="geometry" />
        </mxCell>
        <mxCell id="MKbB5JOdqE88hXex_plG-214" value="- &lt;u&gt;doctors: ArrayList&amp;lt;Doctor&amp;gt;&lt;/u&gt;&lt;div&gt;- &lt;u&gt;patients: ArrayList&amp;lt;Patient&amp;gt;&lt;/u&gt;&lt;/div&gt;&lt;div&gt;- &lt;u&gt;admins: ArrayList&amp;lt;Administrator&amp;gt;&lt;/u&gt;&lt;/div&gt;&lt;div&gt;- &lt;u&gt;systemlogs: ArrayList&amp;lt;String&amp;gt;&lt;/u&gt;&lt;/div&gt;&lt;div&gt;- &lt;u&gt;: long&lt;/u&gt;&lt;/div&gt;&lt;div&gt;&lt;br&gt;&lt;/div&gt;" style="text;strokeColor=none;fillColor=none;align=left;verticalAlign=top;spacingLeft=4;spacingRight=4;overflow=hidden;rotatable=0;points=[[0,0.5],[1,0.5]];portConstraint=eastwest;whiteSpace=wrap;html=1;" parent="MKbB5JOdqE88hXex_plG-213" vertex="1">
          <mxGeometry y="26" width="340" height="94" as="geometry" />
        </mxCell>
        <mxCell id="MKbB5JOdqE88hXex_plG-215" value="" style="line;strokeWidth=1;fillColor=none;align=left;verticalAlign=middle;spacingTop=-1;spacingLeft=3;spacingRight=3;rotatable=0;labelPosition=right;points=[];portConstraint=eastwest;strokeColor=inherit;" parent="MKbB5JOdqE88hXex_plG-213" vertex="1">
          <mxGeometry y="120" width="340" height="8" as="geometry" />
        </mxCell>
        <mxCell id="MKbB5JOdqE88hXex_plG-216" value="+ &lt;u&gt;addSystemLog(String log): void&lt;/u&gt;&lt;div&gt;+ &lt;u&gt;clearSystemLogs(): void&lt;/u&gt;&lt;u&gt;&lt;/u&gt;&lt;/div&gt;&lt;div&gt;+ &lt;u&gt;registerDoctor(Doctor doctor): void&lt;/u&gt;&lt;u&gt;&lt;/u&gt;&lt;/div&gt;&lt;div&gt;&lt;div&gt;+&amp;nbsp;&lt;u&gt;registerPatient(Patient patient): void&lt;/u&gt;&lt;u&gt;&lt;/u&gt;&lt;/div&gt;&lt;div&gt;&lt;div&gt;+&amp;nbsp;&lt;u&gt;registerAdministrator(Administrator admin): void&lt;/u&gt;&lt;u&gt;&lt;/u&gt;&lt;/div&gt;&lt;div&gt;+ removePatient&lt;u&gt;(Patient patient): void&lt;/u&gt;&lt;u&gt;&lt;/u&gt;&lt;/div&gt;&lt;div&gt;+ remove&lt;u&gt;Administrator(Administrator admin): void&lt;/u&gt;&lt;u&gt;&lt;/u&gt;&lt;/div&gt;&lt;div&gt;+ remove&lt;u&gt;Doctor(Doctor doctor): void&lt;/u&gt;&lt;/div&gt;&lt;div&gt;&lt;u&gt;&lt;br&gt;&lt;/u&gt;&lt;/div&gt;&lt;div&gt;&lt;br&gt;&lt;/div&gt;&lt;/div&gt;&lt;div&gt;&lt;br&gt;&lt;/div&gt;&lt;/div&gt;&lt;div&gt;&lt;u&gt;&lt;br&gt;&lt;/u&gt;&lt;/div&gt;&lt;div&gt;&lt;br&gt;&lt;/div&gt;" style="text;strokeColor=none;fillColor=none;align=left;verticalAlign=top;spacingLeft=4;spacingRight=4;overflow=hidden;rotatable=0;points=[[0,0.5],[1,0.5]];portConstraint=eastwest;whiteSpace=wrap;html=1;" parent="MKbB5JOdqE88hXex_plG-213" vertex="1">
          <mxGeometry y="128" width="340" height="152" as="geometry" />
        </mxCell>
        <mxCell id="nwuAQOCsM4HNO6WuRVP9-9" value="" style="curved=1;startArrow=none;endArrow=open;endSize=12;exitX=1.009;exitY=0.639;rounded=0;exitDx=0;exitDy=0;exitPerimeter=0;entryX=1.001;entryY=0.881;entryDx=0;entryDy=0;entryPerimeter=0;" parent="MKbB5JOdqE88hXex_plG-213" source="MKbB5JOdqE88hXex_plG-216" target="MKbB5JOdqE88hXex_plG-214" edge="1">
          <mxGeometry relative="1" as="geometry">
            <Array as="points">
              <mxPoint x="480" y="200" />
            </Array>
            <mxPoint x="354" y="306" as="sourcePoint" />
            <mxPoint x="440" y="130" as="targetPoint" />
          </mxGeometry>
        </mxCell>
        <mxCell id="nwuAQOCsM4HNO6WuRVP9-6" value="" style="curved=1;startArrow=none;endArrow=open;endSize=12;rounded=0;entryX=0;entryY=0;entryDx=0;entryDy=0;" parent="1" target="euu6ToIqH1oOXl2yIwQL-152" edge="1">
          <mxGeometry relative="1" as="geometry">
            <Array as="points" />
            <mxPoint x="770" y="440" as="sourcePoint" />
            <mxPoint x="960" y="440" as="targetPoint" />
          </mxGeometry>
        </mxCell>
        <mxCell id="nwuAQOCsM4HNO6WuRVP9-8" value="" style="curved=1;startArrow=none;endArrow=open;endSize=12;exitX=0.007;exitY=1.006;entryX=0.771;entryY=-0.006;rounded=0;entryDx=0;entryDy=0;entryPerimeter=0;exitDx=0;exitDy=0;exitPerimeter=0;" parent="1" source="MKbB5JOdqE88hXex_plG-216" target="MKbB5JOdqE88hXex_plG-15" edge="1">
          <mxGeometry relative="1" as="geometry">
            <Array as="points" />
            <mxPoint x="728" y="355.93" as="sourcePoint" />
            <mxPoint x="1203" y="2647.93" as="targetPoint" />
          </mxGeometry>
        </mxCell>
        <mxCell id="nwuAQOCsM4HNO6WuRVP9-10" value="" style="rhombus;whiteSpace=wrap;html=1;rotation=0;" parent="1" vertex="1">
          <mxGeometry x="1950" y="-340" width="20" height="30" as="geometry" />
        </mxCell>
        <mxCell id="nwuAQOCsM4HNO6WuRVP9-11" value="" style="endArrow=none;html=1;rounded=0;entryX=0.5;entryY=1;entryDx=0;entryDy=0;exitX=0.567;exitY=0.014;exitDx=0;exitDy=0;exitPerimeter=0;" parent="1" source="MKbB5JOdqE88hXex_plG-44" target="nwuAQOCsM4HNO6WuRVP9-10" edge="1">
          <mxGeometry width="50" height="50" relative="1" as="geometry">
            <mxPoint x="1510" y="-130" as="sourcePoint" />
            <mxPoint x="1550" y="-220" as="targetPoint" />
          </mxGeometry>
        </mxCell>
        <mxCell id="MKbB5JOdqE88hXex_plG-170" value="" style="curved=1;startArrow=none;endArrow=open;endSize=12;rounded=0;entryX=0.995;entryY=0.076;entryDx=0;entryDy=0;entryPerimeter=0;exitX=0.006;exitY=0.202;exitDx=0;exitDy=0;exitPerimeter=0;" parent="1" source="MKbB5JOdqE88hXex_plG-47" target="MKbB5JOdqE88hXex_plG-27" edge="1">
          <mxGeometry relative="1" as="geometry">
            <Array as="points" />
            <mxPoint x="2080" y="453" as="sourcePoint" />
            <mxPoint x="1920" y="440" as="targetPoint" />
          </mxGeometry>
        </mxCell>
        <mxCell id="nwuAQOCsM4HNO6WuRVP9-16" value="" style="endArrow=none;dashed=1;html=1;rounded=0;" parent="1" target="nwuAQOCsM4HNO6WuRVP9-17" edge="1">
          <mxGeometry width="50" height="50" relative="1" as="geometry">
            <mxPoint x="-1445" y="-736.1999999999998" as="sourcePoint" />
            <mxPoint x="-1445" y="-796.1999999999998" as="targetPoint" />
          </mxGeometry>
        </mxCell>
        <mxCell id="nwuAQOCsM4HNO6WuRVP9-17" value="" style="triangle;whiteSpace=wrap;html=1;rotation=-90;" parent="1" vertex="1">
          <mxGeometry x="-1449" y="-814" width="10" height="10" as="geometry" />
        </mxCell>
        <mxCell id="nwuAQOCsM4HNO6WuRVP9-20" value="" style="triangle;whiteSpace=wrap;html=1;rotation=-90;" parent="1" vertex="1">
          <mxGeometry x="-1335" y="-814" width="10" height="10" as="geometry" />
        </mxCell>
        <mxCell id="nwuAQOCsM4HNO6WuRVP9-21" value="" style="endArrow=none;dashed=1;html=1;rounded=0;entryX=0;entryY=0.5;entryDx=0;entryDy=0;exitX=0.018;exitY=-0.024;exitDx=0;exitDy=0;exitPerimeter=0;" parent="1" source="MKbB5JOdqE88hXex_plG-122" target="nwuAQOCsM4HNO6WuRVP9-20" edge="1">
          <mxGeometry width="50" height="50" relative="1" as="geometry">
            <mxPoint x="-1375" y="-726.1999999999998" as="sourcePoint" />
            <mxPoint x="-1325" y="-776.1999999999998" as="targetPoint" />
          </mxGeometry>
        </mxCell>
        <mxCell id="JPKDzT9PxBV57--U5lvR-1" value="" style="endArrow=none;html=1;rounded=0;entryX=0.5;entryY=1;entryDx=0;entryDy=0;exitX=0.508;exitY=0.042;exitDx=0;exitDy=0;exitPerimeter=0;" parent="1" target="JPKDzT9PxBV57--U5lvR-2" edge="1" source="MKbB5JOdqE88hXex_plG-107">
          <mxGeometry width="50" height="50" relative="1" as="geometry">
            <mxPoint x="1945" y="699" as="sourcePoint" />
            <mxPoint x="1967.9988873943366" y="653.1722856765377" as="targetPoint" />
            <Array as="points" />
          </mxGeometry>
        </mxCell>
        <mxCell id="JPKDzT9PxBV57--U5lvR-2" value="" style="rhombus;whiteSpace=wrap;html=1;rotation=0;" parent="1" vertex="1">
          <mxGeometry x="1935" y="538.9000000000001" width="20" height="30" as="geometry" />
        </mxCell>
        <mxCell id="JPKDzT9PxBV57--U5lvR-9" value="" style="endArrow=none;html=1;rounded=0;entryX=0.5;entryY=1;entryDx=0;entryDy=0;exitX=0;exitY=0.351;exitDx=0;exitDy=0;exitPerimeter=0;" parent="1" target="euu6ToIqH1oOXl2yIwQL-129" edge="1" source="MKbB5JOdqE88hXex_plG-118">
          <mxGeometry width="50" height="50" relative="1" as="geometry">
            <mxPoint x="1791" y="612" as="sourcePoint" />
            <mxPoint x="1440" y="610" as="targetPoint" />
            <Array as="points" />
          </mxGeometry>
        </mxCell>
        <mxCell id="euu6ToIqH1oOXl2yIwQL-1" value="ChatHistory" style="swimlane;fontStyle=1;align=center;verticalAlign=top;childLayout=stackLayout;horizontal=1;startSize=26;horizontalStack=0;resizeParent=1;resizeParentMax=0;resizeLast=0;collapsible=1;marginBottom=0;whiteSpace=wrap;html=1;" vertex="1" parent="1">
          <mxGeometry x="-750" y="1490" width="300" height="160" as="geometry" />
        </mxCell>
        <mxCell id="euu6ToIqH1oOXl2yIwQL-2" value="- user1Id: String&lt;div&gt;- user2Id: String&lt;/div&gt;&lt;div&gt;- messages: ArrayList&amp;lt;ChatMessage&lt;span style=&quot;background-color: transparent; color: light-dark(rgb(0, 0, 0), rgb(255, 255, 255));&quot;&gt;&amp;gt;&lt;/span&gt;&lt;/div&gt;" style="text;strokeColor=none;fillColor=none;align=left;verticalAlign=top;spacingLeft=4;spacingRight=4;overflow=hidden;rotatable=0;points=[[0,0.5],[1,0.5]];portConstraint=eastwest;whiteSpace=wrap;html=1;" vertex="1" parent="euu6ToIqH1oOXl2yIwQL-1">
          <mxGeometry y="26" width="300" height="74" as="geometry" />
        </mxCell>
        <mxCell id="euu6ToIqH1oOXl2yIwQL-3" value="" style="line;strokeWidth=1;fillColor=none;align=left;verticalAlign=middle;spacingTop=-1;spacingLeft=3;spacingRight=3;rotatable=0;labelPosition=right;points=[];portConstraint=eastwest;strokeColor=inherit;" vertex="1" parent="euu6ToIqH1oOXl2yIwQL-1">
          <mxGeometry y="100" width="300" height="8" as="geometry" />
        </mxCell>
        <mxCell id="euu6ToIqH1oOXl2yIwQL-4" value="+ addMessage(ChatMessage message): void&lt;div&gt;+ isForUsers(String user1Id, String user2Id): boolean&lt;/div&gt;" style="text;strokeColor=none;fillColor=none;align=left;verticalAlign=top;spacingLeft=4;spacingRight=4;overflow=hidden;rotatable=0;points=[[0,0.5],[1,0.5]];portConstraint=eastwest;whiteSpace=wrap;html=1;" vertex="1" parent="euu6ToIqH1oOXl2yIwQL-1">
          <mxGeometry y="108" width="300" height="52" as="geometry" />
        </mxCell>
        <mxCell id="euu6ToIqH1oOXl2yIwQL-5" value="" style="rhombus;whiteSpace=wrap;html=1;fillColor=#000000;" vertex="1" parent="1">
          <mxGeometry x="-776.5" y="1609.9999999999998" width="26.5" height="24" as="geometry" />
        </mxCell>
        <mxCell id="euu6ToIqH1oOXl2yIwQL-6" value="" style="endArrow=none;html=1;rounded=0;entryX=1;entryY=1;entryDx=0;entryDy=0;exitX=0.5;exitY=0;exitDx=0;exitDy=0;" edge="1" parent="1" source="euu6ToIqH1oOXl2yIwQL-5" target="nwuAQOCsM4HNO6WuRVP9-14">
          <mxGeometry width="50" height="50" relative="1" as="geometry">
            <mxPoint x="-801.75" y="1789.7399999999998" as="sourcePoint" />
            <mxPoint x="-773.7629999999999" y="1699.9959999999996" as="targetPoint" />
          </mxGeometry>
        </mxCell>
        <mxCell id="euu6ToIqH1oOXl2yIwQL-7" value="" style="rhombus;whiteSpace=wrap;html=1;rotation=90;" vertex="1" parent="1">
          <mxGeometry x="-1319.89" y="349.9999999999999" width="49.89" height="24" as="geometry" />
        </mxCell>
        <mxCell id="euu6ToIqH1oOXl2yIwQL-8" value="" style="endArrow=none;html=1;rounded=0;entryX=0;entryY=0.25;entryDx=0;entryDy=0;" edge="1" parent="1" target="nwuAQOCsM4HNO6WuRVP9-14">
          <mxGeometry width="50" height="50" relative="1" as="geometry">
            <mxPoint x="-1300" y="1610" as="sourcePoint" />
            <mxPoint x="-970" y="2300" as="targetPoint" />
          </mxGeometry>
        </mxCell>
        <mxCell id="euu6ToIqH1oOXl2yIwQL-65" value="ChatManager" style="swimlane;fontStyle=1;align=center;verticalAlign=top;childLayout=stackLayout;horizontal=1;startSize=28.571428571428573;horizontalStack=0;resizeParent=1;resizeParentMax=0;resizeLast=0;collapsible=0;marginBottom=0;" vertex="1" parent="1">
          <mxGeometry x="-1080" y="1690" width="417" height="413.57142857142856" as="geometry" />
        </mxCell>
        <mxCell id="euu6ToIqH1oOXl2yIwQL-66" value="- int BASE_PORT" style="text;strokeColor=none;fillColor=none;align=left;verticalAlign=top;spacingLeft=4;spacingRight=4;overflow=hidden;rotatable=0;points=[[0,0.5],[1,0.5]];portConstraint=eastwest;" vertex="1" parent="euu6ToIqH1oOXl2yIwQL-65">
          <mxGeometry y="28.571428571428573" width="417" height="29" as="geometry" />
        </mxCell>
        <mxCell id="euu6ToIqH1oOXl2yIwQL-67" value="- int currentPort" style="text;strokeColor=none;fillColor=none;align=left;verticalAlign=top;spacingLeft=4;spacingRight=4;overflow=hidden;rotatable=0;points=[[0,0.5],[1,0.5]];portConstraint=eastwest;" vertex="1" parent="euu6ToIqH1oOXl2yIwQL-65">
          <mxGeometry y="57.57142857142857" width="417" height="29" as="geometry" />
        </mxCell>
        <mxCell id="euu6ToIqH1oOXl2yIwQL-68" value="- ServerSocket serverSocket" style="text;strokeColor=none;fillColor=none;align=left;verticalAlign=top;spacingLeft=4;spacingRight=4;overflow=hidden;rotatable=0;points=[[0,0.5],[1,0.5]];portConstraint=eastwest;" vertex="1" parent="euu6ToIqH1oOXl2yIwQL-65">
          <mxGeometry y="86.57142857142857" width="417" height="29" as="geometry" />
        </mxCell>
        <mxCell id="euu6ToIqH1oOXl2yIwQL-69" value="- boolean isRunning" style="text;strokeColor=none;fillColor=none;align=left;verticalAlign=top;spacingLeft=4;spacingRight=4;overflow=hidden;rotatable=0;points=[[0,0.5],[1,0.5]];portConstraint=eastwest;" vertex="1" parent="euu6ToIqH1oOXl2yIwQL-65">
          <mxGeometry y="115.57142857142857" width="417" height="29" as="geometry" />
        </mxCell>
        <mxCell id="euu6ToIqH1oOXl2yIwQL-70" value="- Map&lt;String, ClientHandler&gt; connectedUsers" style="text;strokeColor=none;fillColor=none;align=left;verticalAlign=top;spacingLeft=4;spacingRight=4;overflow=hidden;rotatable=0;points=[[0,0.5],[1,0.5]];portConstraint=eastwest;" vertex="1" parent="euu6ToIqH1oOXl2yIwQL-65">
          <mxGeometry y="144.57142857142856" width="417" height="29" as="geometry" />
        </mxCell>
        <mxCell id="euu6ToIqH1oOXl2yIwQL-71" value="- ExecutorService threadPool" style="text;strokeColor=none;fillColor=none;align=left;verticalAlign=top;spacingLeft=4;spacingRight=4;overflow=hidden;rotatable=0;points=[[0,0.5],[1,0.5]];portConstraint=eastwest;" vertex="1" parent="euu6ToIqH1oOXl2yIwQL-65">
          <mxGeometry y="173.57142857142856" width="417" height="29" as="geometry" />
        </mxCell>
        <mxCell id="euu6ToIqH1oOXl2yIwQL-72" style="line;strokeWidth=1;fillColor=none;align=left;verticalAlign=middle;spacingTop=-1;spacingLeft=3;spacingRight=3;rotatable=0;labelPosition=right;points=[];portConstraint=eastwest;strokeColor=inherit;" vertex="1" parent="euu6ToIqH1oOXl2yIwQL-65">
          <mxGeometry y="202.57142857142856" width="417" height="8" as="geometry" />
        </mxCell>
        <mxCell id="euu6ToIqH1oOXl2yIwQL-73" value="+ ChatManager()" style="text;strokeColor=none;fillColor=none;align=left;verticalAlign=top;spacingLeft=4;spacingRight=4;overflow=hidden;rotatable=0;points=[[0,0.5],[1,0.5]];portConstraint=eastwest;" vertex="1" parent="euu6ToIqH1oOXl2yIwQL-65">
          <mxGeometry y="210.57142857142856" width="417" height="29" as="geometry" />
        </mxCell>
        <mxCell id="euu6ToIqH1oOXl2yIwQL-74" value="+ void startServer()" style="text;strokeColor=none;fillColor=none;align=left;verticalAlign=top;spacingLeft=4;spacingRight=4;overflow=hidden;rotatable=0;points=[[0,0.5],[1,0.5]];portConstraint=eastwest;" vertex="1" parent="euu6ToIqH1oOXl2yIwQL-65">
          <mxGeometry y="239.57142857142856" width="417" height="29" as="geometry" />
        </mxCell>
        <mxCell id="euu6ToIqH1oOXl2yIwQL-75" value="+ void stopServer()" style="text;strokeColor=none;fillColor=none;align=left;verticalAlign=top;spacingLeft=4;spacingRight=4;overflow=hidden;rotatable=0;points=[[0,0.5],[1,0.5]];portConstraint=eastwest;" vertex="1" parent="euu6ToIqH1oOXl2yIwQL-65">
          <mxGeometry y="268.57142857142856" width="417" height="29" as="geometry" />
        </mxCell>
        <mxCell id="euu6ToIqH1oOXl2yIwQL-76" value="+ int getCurrentPort()" style="text;strokeColor=none;fillColor=none;align=left;verticalAlign=top;spacingLeft=4;spacingRight=4;overflow=hidden;rotatable=0;points=[[0,0.5],[1,0.5]];portConstraint=eastwest;" vertex="1" parent="euu6ToIqH1oOXl2yIwQL-65">
          <mxGeometry y="297.57142857142856" width="417" height="29" as="geometry" />
        </mxCell>
        <mxCell id="euu6ToIqH1oOXl2yIwQL-77" value="+ void forceReleasePort()" style="text;strokeColor=none;fillColor=none;align=left;verticalAlign=top;spacingLeft=4;spacingRight=4;overflow=hidden;rotatable=0;points=[[0,0.5],[1,0.5]];portConstraint=eastwest;" vertex="1" parent="euu6ToIqH1oOXl2yIwQL-65">
          <mxGeometry y="326.57142857142856" width="417" height="29" as="geometry" />
        </mxCell>
        <mxCell id="euu6ToIqH1oOXl2yIwQL-78" value="+ String getUserNameById(String userId)" style="text;strokeColor=none;fillColor=none;align=left;verticalAlign=top;spacingLeft=4;spacingRight=4;overflow=hidden;rotatable=0;points=[[0,0.5],[1,0.5]];portConstraint=eastwest;" vertex="1" parent="euu6ToIqH1oOXl2yIwQL-65">
          <mxGeometry y="355.57142857142856" width="417" height="29" as="geometry" />
        </mxCell>
        <mxCell id="euu6ToIqH1oOXl2yIwQL-79" value="+ List&lt;User&gt; getChatContactsForUser(User user)" style="text;strokeColor=none;fillColor=none;align=left;verticalAlign=top;spacingLeft=4;spacingRight=4;overflow=hidden;rotatable=0;points=[[0,0.5],[1,0.5]];portConstraint=eastwest;" vertex="1" parent="euu6ToIqH1oOXl2yIwQL-65">
          <mxGeometry y="384.57142857142856" width="417" height="29" as="geometry" />
        </mxCell>
        <mxCell id="euu6ToIqH1oOXl2yIwQL-80" value="ClientHandler" style="swimlane;fontStyle=1;align=center;verticalAlign=top;childLayout=stackLayout;horizontal=1;startSize=29.818181818181817;horizontalStack=0;resizeParent=1;resizeParentMax=0;resizeLast=0;collapsible=0;marginBottom=0;" vertex="1" parent="1">
          <mxGeometry x="-613" y="1726" width="403" height="337.8181818181818" as="geometry" />
        </mxCell>
        <mxCell id="euu6ToIqH1oOXl2yIwQL-81" value="- Socket clientSocket" style="text;strokeColor=none;fillColor=none;align=left;verticalAlign=top;spacingLeft=4;spacingRight=4;overflow=hidden;rotatable=0;points=[[0,0.5],[1,0.5]];portConstraint=eastwest;" vertex="1" parent="euu6ToIqH1oOXl2yIwQL-80">
          <mxGeometry y="29.818181818181817" width="403" height="30" as="geometry" />
        </mxCell>
        <mxCell id="euu6ToIqH1oOXl2yIwQL-82" value="- ObjectInputStream in" style="text;strokeColor=none;fillColor=none;align=left;verticalAlign=top;spacingLeft=4;spacingRight=4;overflow=hidden;rotatable=0;points=[[0,0.5],[1,0.5]];portConstraint=eastwest;" vertex="1" parent="euu6ToIqH1oOXl2yIwQL-80">
          <mxGeometry y="59.81818181818181" width="403" height="30" as="geometry" />
        </mxCell>
        <mxCell id="euu6ToIqH1oOXl2yIwQL-83" value="- ObjectOutputStream out" style="text;strokeColor=none;fillColor=none;align=left;verticalAlign=top;spacingLeft=4;spacingRight=4;overflow=hidden;rotatable=0;points=[[0,0.5],[1,0.5]];portConstraint=eastwest;" vertex="1" parent="euu6ToIqH1oOXl2yIwQL-80">
          <mxGeometry y="89.81818181818181" width="403" height="30" as="geometry" />
        </mxCell>
        <mxCell id="euu6ToIqH1oOXl2yIwQL-84" value="- String userId" style="text;strokeColor=none;fillColor=none;align=left;verticalAlign=top;spacingLeft=4;spacingRight=4;overflow=hidden;rotatable=0;points=[[0,0.5],[1,0.5]];portConstraint=eastwest;" vertex="1" parent="euu6ToIqH1oOXl2yIwQL-80">
          <mxGeometry y="119.81818181818181" width="403" height="30" as="geometry" />
        </mxCell>
        <mxCell id="euu6ToIqH1oOXl2yIwQL-85" value="- boolean running" style="text;strokeColor=none;fillColor=none;align=left;verticalAlign=top;spacingLeft=4;spacingRight=4;overflow=hidden;rotatable=0;points=[[0,0.5],[1,0.5]];portConstraint=eastwest;" vertex="1" parent="euu6ToIqH1oOXl2yIwQL-80">
          <mxGeometry y="149.8181818181818" width="403" height="30" as="geometry" />
        </mxCell>
        <mxCell id="euu6ToIqH1oOXl2yIwQL-86" style="line;strokeWidth=1;fillColor=none;align=left;verticalAlign=middle;spacingTop=-1;spacingLeft=3;spacingRight=3;rotatable=0;labelPosition=right;points=[];portConstraint=eastwest;strokeColor=inherit;" vertex="1" parent="euu6ToIqH1oOXl2yIwQL-80">
          <mxGeometry y="179.8181818181818" width="403" height="8" as="geometry" />
        </mxCell>
        <mxCell id="euu6ToIqH1oOXl2yIwQL-87" value="+ ClientHandler(Socket socket)" style="text;strokeColor=none;fillColor=none;align=left;verticalAlign=top;spacingLeft=4;spacingRight=4;overflow=hidden;rotatable=0;points=[[0,0.5],[1,0.5]];portConstraint=eastwest;" vertex="1" parent="euu6ToIqH1oOXl2yIwQL-80">
          <mxGeometry y="187.8181818181818" width="403" height="30" as="geometry" />
        </mxCell>
        <mxCell id="euu6ToIqH1oOXl2yIwQL-88" value="+ void run()" style="text;strokeColor=none;fillColor=none;align=left;verticalAlign=top;spacingLeft=4;spacingRight=4;overflow=hidden;rotatable=0;points=[[0,0.5],[1,0.5]];portConstraint=eastwest;" vertex="1" parent="euu6ToIqH1oOXl2yIwQL-80">
          <mxGeometry y="217.8181818181818" width="403" height="30" as="geometry" />
        </mxCell>
        <mxCell id="euu6ToIqH1oOXl2yIwQL-89" value="+ void closeConnection()" style="text;strokeColor=none;fillColor=none;align=left;verticalAlign=top;spacingLeft=4;spacingRight=4;overflow=hidden;rotatable=0;points=[[0,0.5],[1,0.5]];portConstraint=eastwest;" vertex="1" parent="euu6ToIqH1oOXl2yIwQL-80">
          <mxGeometry y="247.8181818181818" width="403" height="30" as="geometry" />
        </mxCell>
        <mxCell id="euu6ToIqH1oOXl2yIwQL-90" value="+ void processMessage(ChatMessage message)" style="text;strokeColor=none;fillColor=none;align=left;verticalAlign=top;spacingLeft=4;spacingRight=4;overflow=hidden;rotatable=0;points=[[0,0.5],[1,0.5]];portConstraint=eastwest;" vertex="1" parent="euu6ToIqH1oOXl2yIwQL-80">
          <mxGeometry y="277.8181818181818" width="403" height="30" as="geometry" />
        </mxCell>
        <mxCell id="euu6ToIqH1oOXl2yIwQL-91" value="+ void sendMessage(ChatMessage message)" style="text;strokeColor=none;fillColor=none;align=left;verticalAlign=top;spacingLeft=4;spacingRight=4;overflow=hidden;rotatable=0;points=[[0,0.5],[1,0.5]];portConstraint=eastwest;" vertex="1" parent="euu6ToIqH1oOXl2yIwQL-80">
          <mxGeometry y="307.8181818181818" width="403" height="30" as="geometry" />
        </mxCell>
        <mxCell id="euu6ToIqH1oOXl2yIwQL-92" value="ChatManager.ClientHandler" style="swimlane;fontStyle=1;align=center;verticalAlign=top;childLayout=stackLayout;horizontal=1;startSize=38;horizontalStack=0;resizeParent=1;resizeParentMax=0;resizeLast=0;collapsible=0;marginBottom=0;" vertex="1" parent="1">
          <mxGeometry x="-986" y="2171" width="228" height="57" as="geometry" />
        </mxCell>
        <mxCell id="euu6ToIqH1oOXl2yIwQL-93" style="line;strokeWidth=1;fillColor=none;align=left;verticalAlign=middle;spacingTop=-1;spacingLeft=3;spacingRight=3;rotatable=0;labelPosition=right;points=[];portConstraint=eastwest;strokeColor=inherit;" vertex="1" parent="euu6ToIqH1oOXl2yIwQL-92">
          <mxGeometry y="38" width="228" height="19" as="geometry" />
        </mxCell>
        <mxCell id="euu6ToIqH1oOXl2yIwQL-94" value="contains inner class" style="curved=1;startArrow=none;endArrow=open;endSize=12;exitX=0.5;exitY=1;entryX=0.5;entryY=0;rounded=0;" edge="1" parent="1" source="euu6ToIqH1oOXl2yIwQL-65" target="euu6ToIqH1oOXl2yIwQL-92">
          <mxGeometry relative="1" as="geometry">
            <Array as="points" />
          </mxGeometry>
        </mxCell>
        <mxCell id="euu6ToIqH1oOXl2yIwQL-99" value="" style="rhombus;whiteSpace=wrap;html=1;fillColor=#000000;" vertex="1" parent="1">
          <mxGeometry x="811" y="1322.4499999999998" width="26.5" height="24" as="geometry" />
        </mxCell>
        <mxCell id="euu6ToIqH1oOXl2yIwQL-100" value="" style="endArrow=none;html=1;rounded=0;entryX=0;entryY=0.5;entryDx=0;entryDy=0;exitX=1;exitY=0.5;exitDx=0;exitDy=0;" edge="1" parent="1" source="euu6ToIqH1oOXl2yIwQL-99" target="MKbB5JOdqE88hXex_plG-143">
          <mxGeometry width="50" height="50" relative="1" as="geometry">
            <mxPoint x="831.75" y="1279.7399999999998" as="sourcePoint" />
            <mxPoint x="859.7370000000001" y="1189.9959999999996" as="targetPoint" />
          </mxGeometry>
        </mxCell>
        <mxCell id="euu6ToIqH1oOXl2yIwQL-102" value="com.rpms.EmergencyAlertSystem&lt;div&gt;&lt;br&gt;&lt;/div&gt;" style="text;html=1;align=center;verticalAlign=middle;whiteSpace=wrap;rounded=0;" vertex="1" parent="1">
          <mxGeometry x="-360" y="290" width="60" height="30" as="geometry" />
        </mxCell>
        <mxCell id="euu6ToIqH1oOXl2yIwQL-108" value="&lt;font size=&quot;3&quot;&gt;com.rpms.ChatAndVideoConsulation&lt;/font&gt;" style="text;html=1;align=center;verticalAlign=middle;whiteSpace=wrap;rounded=0;" vertex="1" parent="1">
          <mxGeometry x="-688.5" y="2450" width="60" height="30" as="geometry" />
        </mxCell>
        <mxCell id="euu6ToIqH1oOXl2yIwQL-110" value="com.rpms.DoctorPatientInteraction" style="text;html=1;align=center;verticalAlign=middle;whiteSpace=wrap;rounded=0;" vertex="1" parent="1">
          <mxGeometry x="770" y="1540" width="60" height="30" as="geometry" />
        </mxCell>
        <mxCell id="euu6ToIqH1oOXl2yIwQL-114" value="com.rpms.AppointmentScheduling" style="text;html=1;align=center;verticalAlign=middle;whiteSpace=wrap;rounded=0;" vertex="1" parent="1">
          <mxGeometry x="2010" y="40" width="60" height="30" as="geometry" />
        </mxCell>
        <mxCell id="euu6ToIqH1oOXl2yIwQL-116" value="&lt;font style=&quot;font-size: 18px;&quot;&gt;com.rpms.GUI&lt;/font&gt;" style="text;html=1;align=center;verticalAlign=middle;whiteSpace=wrap;rounded=0;" vertex="1" parent="1">
          <mxGeometry x="-592" y="1270" width="60" height="30" as="geometry" />
        </mxCell>
        <mxCell id="euu6ToIqH1oOXl2yIwQL-118" value="" style="curved=1;startArrow=none;endArrow=open;endSize=12;exitX=1;exitY=0.25;entryX=0.009;entryY=-0.016;rounded=0;entryDx=0;entryDy=0;exitDx=0;exitDy=0;entryPerimeter=0;" edge="1" parent="1" source="MKbB5JOdqE88hXex_plG-101">
          <mxGeometry relative="1" as="geometry">
            <Array as="points" />
            <mxPoint x="277" y="380" as="sourcePoint" />
            <mxPoint x="963.969" y="527.5075294117651" as="targetPoint" />
          </mxGeometry>
        </mxCell>
        <mxCell id="euu6ToIqH1oOXl2yIwQL-121" value="" style="curved=1;startArrow=none;endArrow=open;endSize=12;exitX=0.991;exitY=0.187;entryX=0;entryY=0.5;rounded=0;entryDx=0;entryDy=0;exitDx=0;exitDy=0;exitPerimeter=0;" edge="1" parent="1" source="MKbB5JOdqE88hXex_plG-98" target="MKbB5JOdqE88hXex_plG-19">
          <mxGeometry relative="1" as="geometry">
            <Array as="points" />
            <mxPoint x="-60" y="764.54" as="sourcePoint" />
            <mxPoint x="990" y="768.54" as="targetPoint" />
          </mxGeometry>
        </mxCell>
        <mxCell id="euu6ToIqH1oOXl2yIwQL-123" value="" style="endArrow=none;html=1;rounded=0;exitX=0.394;exitY=0;exitDx=0;exitDy=0;exitPerimeter=0;" edge="1" parent="1">
          <mxGeometry width="50" height="50" relative="1" as="geometry">
            <mxPoint x="-657.2399999999998" y="870" as="sourcePoint" />
            <mxPoint x="-660" y="-360" as="targetPoint" />
          </mxGeometry>
        </mxCell>
        <mxCell id="euu6ToIqH1oOXl2yIwQL-124" value="" style="endArrow=classic;html=1;rounded=0;entryX=-0.003;entryY=-0.081;entryDx=0;entryDy=0;entryPerimeter=0;" edge="1" parent="1" target="MKbB5JOdqE88hXex_plG-8">
          <mxGeometry width="50" height="50" relative="1" as="geometry">
            <mxPoint x="-660" y="-360" as="sourcePoint" />
            <mxPoint x="760" y="-420.00285714285707" as="targetPoint" />
          </mxGeometry>
        </mxCell>
        <mxCell id="euu6ToIqH1oOXl2yIwQL-129" value="" style="rhombus;whiteSpace=wrap;html=1;rotation=-90;fillColor=#000000;" vertex="1" parent="1">
          <mxGeometry x="1400.5" y="600.22" width="15.39" height="25.08" as="geometry" />
        </mxCell>
        <mxCell id="euu6ToIqH1oOXl2yIwQL-130" value="com.rpms.HealthDataHandling" style="text;html=1;align=center;verticalAlign=middle;whiteSpace=wrap;rounded=0;" vertex="1" parent="1">
          <mxGeometry x="1935" y="972" width="60" height="30" as="geometry" />
        </mxCell>
        <mxCell id="euu6ToIqH1oOXl2yIwQL-132" value="com.rpms.NotificationsAndReminders" style="text;html=1;align=center;verticalAlign=middle;whiteSpace=wrap;rounded=0;" vertex="1" parent="1">
          <mxGeometry x="-1285" y="-520" width="60" height="30" as="geometry" />
        </mxCell>
        <mxCell id="euu6ToIqH1oOXl2yIwQL-134" value="com.rpms.Reports" style="text;html=1;align=center;verticalAlign=middle;whiteSpace=wrap;rounded=0;" vertex="1" parent="1">
          <mxGeometry x="1750.5" y="1433.7800000000002" width="60" height="30" as="geometry" />
        </mxCell>
        <mxCell id="euu6ToIqH1oOXl2yIwQL-142" value="&lt;font style=&quot;font-size: 18px;&quot;&gt;com.rpms.utilities&lt;/font&gt;&lt;div&gt;&lt;br&gt;&lt;/div&gt;" style="text;html=1;align=center;verticalAlign=middle;whiteSpace=wrap;rounded=0;" vertex="1" parent="1">
          <mxGeometry x="-1118" y="400" width="60" height="30" as="geometry" />
        </mxCell>
        <mxCell id="euu6ToIqH1oOXl2yIwQL-143" value="" style="endArrow=none;html=1;rounded=0;exitX=0.209;exitY=-0.003;exitDx=0;exitDy=0;exitPerimeter=0;" edge="1" parent="1" source="MKbB5JOdqE88hXex_plG-15">
          <mxGeometry width="50" height="50" relative="1" as="geometry">
            <mxPoint x="450" y="180" as="sourcePoint" />
            <mxPoint x="210" y="-50" as="targetPoint" />
          </mxGeometry>
        </mxCell>
        <mxCell id="euu6ToIqH1oOXl2yIwQL-144" value="" style="endArrow=none;html=1;rounded=0;" edge="1" parent="1">
          <mxGeometry width="50" height="50" relative="1" as="geometry">
            <mxPoint x="210" y="-50" as="sourcePoint" />
            <mxPoint x="800" y="-50" as="targetPoint" />
          </mxGeometry>
        </mxCell>
        <mxCell id="euu6ToIqH1oOXl2yIwQL-145" value="" style="curved=1;startArrow=block;startSize=16;startFill=0;endArrow=none;rounded=0;exitX=0.096;exitY=0.987;exitDx=0;exitDy=0;exitPerimeter=0;" edge="1" parent="1" source="MKbB5JOdqE88hXex_plG-14">
          <mxGeometry relative="1" as="geometry">
            <Array as="points" />
            <mxPoint x="790" y="-190" as="sourcePoint" />
            <mxPoint x="800" y="-50" as="targetPoint" />
          </mxGeometry>
        </mxCell>
        <mxCell id="euu6ToIqH1oOXl2yIwQL-146" value="" style="endArrow=none;html=1;rounded=0;entryX=0.798;entryY=1.04;entryDx=0;entryDy=0;entryPerimeter=0;" edge="1" parent="1" target="MKbB5JOdqE88hXex_plG-216">
          <mxGeometry width="50" height="50" relative="1" as="geometry">
            <mxPoint x="771" y="440" as="sourcePoint" />
            <mxPoint x="610" y="360" as="targetPoint" />
          </mxGeometry>
        </mxCell>
        <mxCell id="euu6ToIqH1oOXl2yIwQL-151" value="&lt;font style=&quot;font-size: 24px;&quot;&gt;com.rpms.UserManagement&lt;/font&gt;" style="text;html=1;align=center;verticalAlign=middle;whiteSpace=wrap;rounded=0;" vertex="1" parent="1">
          <mxGeometry x="760" y="972" width="60" height="30" as="geometry" />
        </mxCell>
        <mxCell id="euu6ToIqH1oOXl2yIwQL-156" value="" style="endArrow=none;html=1;rounded=0;exitX=1.003;exitY=-0.064;exitDx=0;exitDy=0;entryX=0.023;entryY=0.484;entryDx=0;entryDy=0;entryPerimeter=0;exitPerimeter=0;" edge="1" parent="1" source="MKbB5JOdqE88hXex_plG-19" target="euu6ToIqH1oOXl2yIwQL-154">
          <mxGeometry width="50" height="50" relative="1" as="geometry">
            <mxPoint x="622" y="701" as="sourcePoint" />
            <mxPoint x="970" y="698" as="targetPoint" />
          </mxGeometry>
        </mxCell>
        <mxCell id="euu6ToIqH1oOXl2yIwQL-154" value="" style="rhombus;whiteSpace=wrap;html=1;" vertex="1" parent="1">
          <mxGeometry x="620" y="683" width="30" height="17" as="geometry" />
        </mxCell>
        <mxCell id="euu6ToIqH1oOXl2yIwQL-158" value="" style="endArrow=none;html=1;rounded=0;exitX=1;exitY=0.5;exitDx=0;exitDy=0;entryX=0.023;entryY=0.484;entryDx=0;entryDy=0;entryPerimeter=0;" edge="1" parent="1" source="euu6ToIqH1oOXl2yIwQL-154" target="euu6ToIqH1oOXl2yIwQL-157">
          <mxGeometry width="50" height="50" relative="1" as="geometry">
            <mxPoint x="650" y="692" as="sourcePoint" />
            <mxPoint x="970" y="698" as="targetPoint" />
          </mxGeometry>
        </mxCell>
        <mxCell id="euu6ToIqH1oOXl2yIwQL-157" value="" style="rhombus;whiteSpace=wrap;html=1;" vertex="1" parent="1">
          <mxGeometry x="940" y="683" width="30" height="17" as="geometry" />
        </mxCell>
        <mxCell id="euu6ToIqH1oOXl2yIwQL-163" value="" style="endArrow=none;html=1;rounded=0;entryX=0.5;entryY=1;entryDx=0;entryDy=0;" edge="1" parent="1" target="euu6ToIqH1oOXl2yIwQL-164">
          <mxGeometry width="50" height="50" relative="1" as="geometry">
            <mxPoint x="1220" y="1460" as="sourcePoint" />
            <mxPoint x="1252.45" y="789.78" as="targetPoint" />
            <Array as="points" />
          </mxGeometry>
        </mxCell>
        <mxCell id="euu6ToIqH1oOXl2yIwQL-164" value="" style="rhombus;whiteSpace=wrap;html=1;rotation=0;fillColor=#000000;" vertex="1" parent="1">
          <mxGeometry x="1210" y="1000" width="15.39" height="40" as="geometry" />
        </mxCell>
        <mxCell id="euu6ToIqH1oOXl2yIwQL-192" value="" style="endArrow=classic;html=1;rounded=0;entryX=-0.003;entryY=-0.081;entryDx=0;entryDy=0;entryPerimeter=0;" edge="1" parent="1">
          <mxGeometry width="50" height="50" relative="1" as="geometry">
            <mxPoint x="-940" y="-430" as="sourcePoint" />
            <mxPoint x="760" y="-430" as="targetPoint" />
          </mxGeometry>
        </mxCell>
        <mxCell id="euu6ToIqH1oOXl2yIwQL-193" value="" style="endArrow=none;html=1;rounded=0;entryX=1;entryY=0.5;entryDx=0;entryDy=0;" edge="1" parent="1" target="euu6ToIqH1oOXl2yIwQL-7">
          <mxGeometry width="50" height="50" relative="1" as="geometry">
            <mxPoint x="-1295" y="1610" as="sourcePoint" />
            <mxPoint x="-590" y="350" as="targetPoint" />
          </mxGeometry>
        </mxCell>
        <mxCell id="euu6ToIqH1oOXl2yIwQL-197" value="" style="endArrow=none;html=1;rounded=0;exitX=1.017;exitY=1.086;exitDx=0;exitDy=0;exitPerimeter=0;" edge="1" parent="1" source="euu6ToIqH1oOXl2yIwQL-98">
          <mxGeometry width="50" height="50" relative="1" as="geometry">
            <mxPoint x="950" y="1950" as="sourcePoint" />
            <mxPoint x="1220" y="1460" as="targetPoint" />
          </mxGeometry>
        </mxCell>
        <mxCell id="euu6ToIqH1oOXl2yIwQL-198" value="" style="endArrow=none;html=1;rounded=0;entryX=0.307;entryY=1.117;entryDx=0;entryDy=0;entryPerimeter=0;" edge="1" parent="1" target="MKbB5JOdqE88hXex_plG-135">
          <mxGeometry width="50" height="50" relative="1" as="geometry">
            <mxPoint x="-940" y="-430" as="sourcePoint" />
            <mxPoint x="-790" y="-490" as="targetPoint" />
          </mxGeometry>
        </mxCell>
      </root>
    </mxGraphModel>
  </diagram>
</mxfile>
